<?xml version="1.0" encoding="utf-8"?>
<!-- Generator: Adobe Illustrator 22.0.1, SVG Export Plug-In . SVG Version: 6.00 Build 0)  -->
<svg version="1.1" id="Camada_1" xmlns="http://www.w3.org/2000/svg" xmlns:xlink="http://www.w3.org/1999/xlink" x="0px" y="0px"
	 viewBox="0 0 400 166" style="enable-background:new 0 0 400 166;" xml:space="preserve">
<style type="text/css">
	.st0{display:none;fill:#EBA352;}
	.st1{fill:#FFDD67;}
	.st2{fill:#EBA352;}
</style>
<rect x="135.3" y="14" class="st0" width="129.3" height="52.7"/>
<g>
	<path class="st1" d="M27,79.7l-3.5,2.5c0,0-1.8-5-3.1-8.1c-0.6-1.3-2.3-1.7-3.1-3.5c-1.4-3.1,0.2-5.8,1.9-3.9
		c1.9,2.2,4.7,3.9,5.2,5.2C25.3,74.1,27,79.7,27,79.7z"/>
	<path class="st1" d="M29.8,81.7c0.2,1.7,0,4.4-1.4,7.5c0,0-3.1-3.7-3.4-5.3c0,0-0.9-6.4-1.7-10.5c-0.4-1.7-2.3-2.6-2.8-5
		c-0.9-4.1,1.7-6.9,3.2-4.2c1.7,3.2,4.6,5.8,5,7.5C29.2,74.6,29.4,79.2,29.8,81.7z"/>
	<path class="st2" d="M25.2,78.5c0,0-0.3-2.4-1.2-6.5c-0.4-1.7-2.3-2.6-2.8-5c-0.3-1.4-0.2-2.7,0.1-3.6c-0.9,0.7-1.7,2.6-1.2,5
		c0.5,2.3,2.5,3.3,2.8,5c0.2,1.2,0.5,2.4,0.7,3.6l-2.7-1C21.1,76,25.2,78.5,25.2,78.5z"/>
	<path class="st1" d="M28.5,81.1c-3.6-3.2-7.5-5.2-10.1-6.5c-3.8-1.9-2.8,0.7-9.3,2.4c-0.9,0.2-1.9,0.8-1.1,2.5
		c0.8,1.6,6.9,0.4,7.8-0.6c0,0,2.6,3.1,5.1,3.1c0,0-0.4,2.1,0.2,3.1c0,0-3.6,1.9-5.2,3.5l-4.3-2.9c-0.3-4.5-1.1-5.8-3.3-5.6
		c-2,0.2-1.8,2.1-1.8,3.7c0.1,2.8-0.7,3.3,0,4.4c2.7,4.3,6,7,12.2,7c2.3,0,3.8-0.1,5.2-0.8C26.5,93.4,32.4,84.7,28.5,81.1z"/>
	<path class="st2" d="M29.2,81.9c1.3,4.1-3.4,10.8-5.5,11.8c-1.4,0.7-2.9,0.8-5.2,0.8c-6.2,0-9.5-2.6-12.1-6.9
		c0.1,0.2,0.2,0.5,0.3,0.7c2.7,4.3,6,7,12.2,7c2.3,0,3.8-0.1,5.2-0.8C26.3,93.5,31.6,85.9,29.2,81.9z"/>
	<path class="st2" d="M10.9,85.9c0,0,4,2.6,5,2.7l-4.2-2.9c0.2-4.5-1.2-5.9-3.3-5.6c-0.2,0-0.3,0.1-0.5,0.1
		C10,80.1,11.1,81.5,10.9,85.9z"/>
	<path class="st2" d="M15.9,79c0,0,2.6,3.1,5.1,3.1v-0.6c-2.6,0.1-5.1-3.1-5.1-3.1c-1,0.9-7.1,2.1-7.8,0.6c-0.1-0.2-0.2-0.5-0.2-0.7
		c-0.1,0.3,0,0.8,0.2,1.3C8.8,81.1,14.9,79.9,15.9,79z"/>
</g>
<g>
	<path class="st1" d="M78.5,134.1l-3.5,2.5c0,0-1.8-5-3.1-8.1c-0.6-1.3-2.3-1.7-3.1-3.5c-1.4-3.1,0.2-5.8,1.9-3.9
		c1.9,2.2,4.7,3.9,5.2,5.2C76.8,128.5,78.5,134.1,78.5,134.1z"/>
	<path class="st1" d="M81.3,136.2c0.2,1.7,0,4.4-1.4,7.5c0,0-3.1-3.7-3.4-5.3c0,0-0.9-6.4-1.7-10.5c-0.4-1.7-2.3-2.6-2.8-5
		c-0.9-4.1,1.7-6.9,3.2-4.2c1.7,3.2,4.6,5.8,5,7.5C80.7,129,80.9,133.7,81.3,136.2z"/>
	<path class="st2" d="M76.7,133c0,0-0.3-2.4-1.2-6.5c-0.4-1.7-2.3-2.6-2.8-5c-0.3-1.4-0.2-2.7,0.1-3.6c-0.9,0.7-1.7,2.6-1.2,5
		c0.5,2.3,2.5,3.3,2.8,5c0.2,1.2,0.5,2.4,0.7,3.6l-2.7-1C72.6,130.4,76.7,133,76.7,133z"/>
	<path class="st1" d="M80,135.5c-3.6-3.2-7.5-5.2-10.1-6.5c-3.8-1.9-2.8,0.7-9.3,2.4c-0.9,0.2-1.9,0.8-1.1,2.5
		c0.8,1.6,6.9,0.4,7.8-0.6c0,0,2.6,3.1,5.1,3.1c0,0-0.4,2.1,0.2,3.1c0,0-3.6,1.9-5.2,3.5l-4.3-2.9c-0.3-4.5-1.1-5.8-3.3-5.6
		c-2,0.2-1.8,2.1-1.8,3.7c0.1,2.8-0.7,3.3,0,4.4c2.7,4.3,6,7,12.2,7c2.3,0,3.8-0.1,5.2-0.8C78,147.8,83.9,139.1,80,135.5z"/>
	<path class="st2" d="M80.7,136.4c1.3,4.1-3.4,10.8-5.5,11.8c-1.4,0.7-2.9,0.8-5.2,0.8c-6.2,0-9.5-2.6-12.1-6.9
		c0.1,0.2,0.2,0.5,0.3,0.7c2.7,4.3,6,7,12.2,7c2.3,0,3.8-0.1,5.2-0.8C77.8,147.9,83.1,140.3,80.7,136.4z"/>
	<path class="st2" d="M62.4,140.4c0,0,4,2.6,5,2.7l-4.2-2.9c0.2-4.5-1.2-5.9-3.3-5.6c-0.2,0-0.3,0.1-0.5,0.1
		C61.5,134.5,62.6,136,62.4,140.4z"/>
	<path class="st2" d="M67.4,133.4c0,0,2.6,3.1,5.1,3.1v-0.6c-2.6,0.1-5.1-3.1-5.1-3.1c-1,0.9-7.1,2.1-7.8,0.6
		c-0.1-0.2-0.2-0.5-0.2-0.7c-0.1,0.3,0,0.8,0.2,1.3C60.3,135.5,66.4,134.3,67.4,133.4z"/>
</g>
<g>
	<path class="st1" d="M121.5,77.7l-3.5,2.5c0,0-1.8-5-3.1-8.1c-0.6-1.3-2.3-1.7-3.1-3.5c-1.4-3.1,0.2-5.8,1.9-3.9
		c1.9,2.2,4.7,3.9,5.2,5.2C119.8,72.1,121.5,77.7,121.5,77.7z"/>
	<path class="st1" d="M124.3,79.7c0.2,1.7,0,4.4-1.4,7.5c0,0-3.1-3.7-3.4-5.3c0,0-0.9-6.4-1.7-10.5c-0.4-1.7-2.3-2.6-2.8-5
		c-0.9-4.1,1.7-6.9,3.2-4.2c1.7,3.2,4.6,5.8,5,7.5C123.7,72.6,123.9,77.2,124.3,79.7z"/>
	<path class="st2" d="M119.7,76.5c0,0-0.3-2.4-1.2-6.5c-0.4-1.7-2.3-2.6-2.8-5c-0.3-1.4-0.2-2.7,0.1-3.6c-0.9,0.7-1.7,2.6-1.2,5
		c0.5,2.3,2.5,3.3,2.8,5c0.2,1.2,0.5,2.4,0.7,3.6l-2.7-1C115.6,74,119.7,76.5,119.7,76.5z"/>
	<path class="st1" d="M123,79.1c-3.6-3.2-7.5-5.2-10.1-6.5c-3.8-1.9-2.8,0.7-9.3,2.4c-0.9,0.2-1.9,0.8-1.1,2.5
		c0.8,1.6,6.9,0.4,7.8-0.6c0,0,2.6,3.1,5.1,3.1c0,0-0.4,2.1,0.2,3.1c0,0-3.6,1.9-5.2,3.5l-4.3-2.9c-0.3-4.5-1.1-5.8-3.3-5.6
		c-2,0.2-1.8,2.1-1.8,3.7c0.1,2.8-0.7,3.3,0,4.4c2.7,4.3,6,7,12.2,7c2.3,0,3.8-0.1,5.2-0.8C121,91.4,126.9,82.7,123,79.1z"/>
	<path class="st2" d="M123.7,79.9c1.3,4.1-3.4,10.8-5.5,11.8c-1.4,0.7-2.9,0.8-5.2,0.8c-6.2,0-9.5-2.6-12.1-6.9
		c0.1,0.2,0.2,0.5,0.3,0.7c2.7,4.3,6,7,12.2,7c2.3,0,3.8-0.1,5.2-0.8C120.8,91.5,126.1,83.9,123.7,79.9z"/>
	<path class="st2" d="M105.4,83.9c0,0,4,2.6,5,2.7l-4.2-2.9c0.2-4.5-1.2-5.9-3.3-5.6c-0.2,0-0.3,0.1-0.5,0.1
		C104.5,78.1,105.6,79.5,105.4,83.9z"/>
	<path class="st2" d="M110.4,77c0,0,2.6,3.1,5.1,3.1v-0.6c-2.6,0.1-5.1-3.1-5.1-3.1c-1,0.9-7.1,2.1-7.8,0.6
		c-0.1-0.2-0.2-0.5-0.2-0.7c-0.1,0.3,0,0.8,0.2,1.3C103.3,79.1,109.4,77.9,110.4,77z"/>
</g>
<g>
	<path class="st1" d="M169.1,138.4l-3.5,2.5c0,0-1.8-5-3.1-8.1c-0.6-1.3-2.3-1.7-3.1-3.5c-1.4-3.1,0.2-5.8,1.9-3.9
		c1.9,2.2,4.7,3.9,5.2,5.2C167.5,132.8,169.1,138.4,169.1,138.4z"/>
	<path class="st1" d="M171.9,140.4c0.2,1.7,0,4.4-1.4,7.5c0,0-3.1-3.7-3.4-5.3c0,0-0.9-6.4-1.7-10.5c-0.4-1.7-2.3-2.6-2.8-5
		c-0.9-4.1,1.7-6.9,3.2-4.2c1.7,3.2,4.6,5.8,5,7.5C171.3,133.3,171.6,137.9,171.9,140.4z"/>
	<path class="st2" d="M167.4,137.2c0,0-0.3-2.4-1.2-6.5c-0.4-1.7-2.3-2.6-2.8-5c-0.3-1.4-0.2-2.7,0.1-3.6c-0.9,0.7-1.7,2.6-1.2,5
		c0.5,2.3,2.5,3.3,2.8,5c0.2,1.2,0.5,2.4,0.7,3.6l-2.7-1C163.2,134.7,167.4,137.2,167.4,137.2z"/>
	<path class="st1" d="M170.6,139.8c-3.6-3.2-7.5-5.2-10.1-6.5c-3.8-1.9-2.8,0.7-9.3,2.4c-0.9,0.2-1.9,0.8-1.1,2.5
		c0.8,1.6,6.9,0.4,7.8-0.6c0,0,2.6,3.1,5.1,3.1c0,0-0.4,2.1,0.2,3.1c0,0-3.6,1.9-5.2,3.5l-4.3-2.9c-0.3-4.5-1.1-5.8-3.3-5.6
		c-2,0.2-1.8,2.1-1.8,3.7c0.1,2.8-0.7,3.3,0,4.4c2.7,4.3,6,7,12.2,7c2.3,0,3.8-0.1,5.2-0.8C168.6,152.1,174.6,143.4,170.6,139.8z"/>
	<path class="st2" d="M171.3,140.6c1.3,4.1-3.4,10.8-5.5,11.8c-1.4,0.7-2.9,0.8-5.2,0.8c-6.2,0-9.5-2.6-12.1-6.9
		c0.1,0.2,0.2,0.5,0.3,0.7c2.7,4.3,6,7,12.2,7c2.3,0,3.8-0.1,5.2-0.8C168.4,152.2,173.7,144.6,171.3,140.6z"/>
	<path class="st2" d="M153.1,144.6c0,0,4,2.6,5,2.7l-4.2-2.9c0.2-4.5-1.2-5.9-3.3-5.6c-0.2,0-0.3,0.1-0.5,0.1
		C152.2,138.8,153.2,140.2,153.1,144.6z"/>
	<path class="st2" d="M158,137.7c0,0,2.6,3.1,5.1,3.1v-0.6c-2.6,0.1-5.1-3.1-5.1-3.1c-1,0.9-7.1,2.1-7.8,0.6
		c-0.1-0.2-0.2-0.5-0.2-0.7c-0.1,0.3,0,0.8,0.2,1.3C150.9,139.8,157.1,138.6,158,137.7z"/>
</g>
<g>
	<path class="st1" d="M172.7,77.2l-3.5,2.5c0,0-1.8-5-3.1-8.1c-0.6-1.3-2.3-1.7-3.1-3.5c-1.4-3.1,0.2-5.8,1.9-3.9
		c1.9,2.2,4.7,3.9,5.2,5.2C171.1,71.6,172.7,77.2,172.7,77.2z"/>
	<path class="st1" d="M175.5,79.2c0.2,1.7,0,4.4-1.4,7.5c0,0-3.1-3.7-3.4-5.3c0,0-0.9-6.4-1.7-10.5c-0.4-1.7-2.3-2.6-2.8-5
		c-0.9-4.1,1.7-6.9,3.2-4.2c1.7,3.2,4.6,5.8,5,7.5C174.9,72.1,175.2,76.7,175.5,79.2z"/>
	<path class="st2" d="M171,76c0,0-0.3-2.4-1.2-6.5c-0.4-1.7-2.3-2.6-2.8-5c-0.3-1.4-0.2-2.7,0.1-3.6c-0.9,0.7-1.7,2.6-1.2,5
		c0.5,2.3,2.5,3.3,2.8,5c0.2,1.2,0.5,2.4,0.7,3.6l-2.7-1C166.8,73.5,171,76,171,76z"/>
	<path class="st1" d="M174.2,78.6c-3.6-3.2-7.5-5.2-10.1-6.5c-3.8-1.9-2.8,0.7-9.3,2.4c-0.9,0.2-1.9,0.8-1.1,2.5
		c0.8,1.6,6.9,0.4,7.8-0.6c0,0,2.6,3.1,5.1,3.1c0,0-0.4,2.1,0.2,3.1c0,0-3.6,1.9-5.2,3.5l-4.3-2.9c-0.3-4.5-1.1-5.8-3.3-5.6
		c-2,0.2-1.8,2.1-1.8,3.7c0.1,2.8-0.7,3.3,0,4.4c2.7,4.3,6,7,12.2,7c2.3,0,3.8-0.1,5.2-0.8C172.2,90.9,178.2,82.2,174.2,78.6z"/>
	<path class="st2" d="M174.9,79.4c1.3,4.1-3.4,10.8-5.5,11.8c-1.4,0.7-2.9,0.8-5.2,0.8c-6.2,0-9.5-2.6-12.1-6.9
		c0.1,0.2,0.2,0.5,0.3,0.7c2.7,4.3,6,7,12.2,7c2.3,0,3.8-0.1,5.2-0.8C172,91,177.3,83.4,174.9,79.4z"/>
	<path class="st2" d="M156.7,83.4c0,0,4,2.6,5,2.7l-4.2-2.9c0.2-4.5-1.2-5.9-3.3-5.6c-0.2,0-0.3,0.1-0.5,0.1
		C155.8,77.6,156.8,79,156.7,83.4z"/>
	<path class="st2" d="M161.6,76.5c0,0,2.6,3.1,5.1,3.1V79c-2.6,0.1-5.1-3.1-5.1-3.1c-1,0.9-7.1,2.1-7.8,0.6
		c-0.1-0.2-0.2-0.5-0.2-0.7c-0.1,0.3,0,0.8,0.2,1.3C154.5,78.6,160.7,77.4,161.6,76.5z"/>
</g>
<g>
	<path class="st1" d="M214.6,98.3l-4.7,3.3c0,0-2.3-6.6-4.1-10.7c-0.7-1.7-3-2.3-4.1-4.7c-1.8-4.1,0.3-7.7,2.5-5.1
		c2.5,3,6.2,5.2,6.9,6.9C212.4,90.9,214.6,98.3,214.6,98.3z"/>
	<path class="st1" d="M218.4,101c0.3,2.2,0,5.8-1.9,9.9c0,0-4.1-4.9-4.5-7.1c0,0-1.2-8.5-2.3-13.9c-0.5-2.2-3-3.5-3.7-6.6
		c-1.2-5.4,2.3-9.2,4.3-5.5c2.3,4.2,6.1,7.7,6.6,10C217.6,91.5,217.9,97.7,218.4,101z"/>
	<path class="st2" d="M212.3,96.8c0,0-0.4-3.2-1.5-8.6c-0.5-2.2-3-3.5-3.7-6.6c-0.4-1.9-0.3-3.5,0.2-4.8c-1.2,0.9-2.2,3.5-1.5,6.6
		s3.3,4.4,3.7,6.6c0.3,1.6,0.6,3.2,0.9,4.7l-3.6-1.3C206.8,93.4,212.3,96.8,212.3,96.8z"/>
	<path class="st1" d="M216.6,100.2c-4.7-4.3-10-6.9-13.4-8.6c-5-2.5-3.7,0.9-12.3,3.2c-1.1,0.3-2.5,1.1-1.5,3.3
		c1,2.1,9.1,0.5,10.4-0.7c0,0,3.4,4.2,6.8,4.1c0,0-0.6,2.8,0.2,4.1c0,0-4.8,2.5-6.9,4.7l-5.7-3.8c-0.4-5.9-1.5-7.7-4.4-7.4
		c-2.7,0.3-2.4,2.8-2.4,4.9c0.1,3.8-0.9,4.4,0,5.9c3.5,5.7,8,9.3,16.2,9.3c3.1,0,5.1-0.1,6.9-1C213.9,116.5,221.8,104.9,216.6,100.2
		z"/>
	<path class="st2" d="M217.6,101.3c1.8,5.4-4.5,14.3-7.3,15.7c-1.9,0.9-3.9,1-6.9,1c-8.2,0-12.6-3.5-16.1-9.1
		c0.1,0.3,0.2,0.6,0.4,0.9c3.5,5.7,8,9.3,16.2,9.3c3.1,0,5.1-0.1,6.9-1C213.7,116.6,220.7,106.5,217.6,101.3z"/>
	<path class="st2" d="M193.3,106.6c0,0,5.3,3.4,6.6,3.6l-5.6-3.8c0.2-6-1.5-7.9-4.4-7.4c-0.2,0-0.4,0.1-0.6,0.1
		C192.2,98.8,193.6,100.7,193.3,106.6z"/>
	<path class="st2" d="M199.9,97.4c0,0,3.4,4.2,6.8,4.1v-0.8c-3.4,0.1-6.8-4.1-6.8-4.1c-1.3,1.2-9.4,2.8-10.4,0.7
		c-0.2-0.3-0.3-0.6-0.3-1c-0.1,0.5,0,1,0.3,1.8C190.5,100.2,198.6,98.6,199.9,97.4z"/>
</g>
<g>
	<path class="st1" d="M273.7,69.4l-3.5,2.5c0,0-1.8-5-3.1-8.1c-0.6-1.3-2.3-1.7-3.1-3.5c-1.4-3.1,0.2-5.8,1.9-3.9
		c1.9,2.2,4.7,3.9,5.2,5.2C272.1,63.8,273.7,69.4,273.7,69.4z"/>
	<path class="st1" d="M276.5,71.5c0.2,1.7,0,4.4-1.4,7.5c0,0-3.1-3.7-3.4-5.3c0,0-0.9-6.4-1.7-10.5c-0.4-1.7-2.3-2.6-2.8-5
		c-0.9-4.1,1.7-6.9,3.2-4.2c1.7,3.2,4.6,5.8,5,7.5C275.9,64.3,276.2,69,276.5,71.5z"/>
	<path class="st2" d="M272,68.3c0,0-0.3-2.4-1.2-6.5c-0.4-1.7-2.3-2.6-2.8-5c-0.3-1.4-0.2-2.7,0.1-3.6c-0.9,0.7-1.7,2.6-1.2,5
		c0.5,2.3,2.5,3.3,2.8,5c0.2,1.2,0.5,2.4,0.7,3.6l-2.7-1C267.8,65.7,272,68.3,272,68.3z"/>
	<path class="st1" d="M275.2,70.8c-3.6-3.2-7.5-5.2-10.1-6.5c-3.8-1.9-2.8,0.7-9.3,2.4c-0.9,0.2-1.9,0.8-1.1,2.5
		c0.8,1.6,6.9,0.4,7.8-0.6c0,0,2.6,3.1,5.1,3.1c0,0-0.4,2.1,0.2,3.1c0,0-3.6,1.9-5.2,3.5l-4.3-2.9c-0.3-4.5-1.1-5.8-3.3-5.6
		c-2,0.2-1.8,2.1-1.8,3.7c0.1,2.8-0.7,3.3,0,4.4c2.7,4.3,6,7,12.2,7c2.3,0,3.8-0.1,5.2-0.8C273.2,83.1,279.2,74.4,275.2,70.8z"/>
	<path class="st2" d="M275.9,71.7c1.3,4.1-3.4,10.8-5.5,11.8c-1.4,0.7-2.9,0.8-5.2,0.8c-6.2,0-9.5-2.6-12.1-6.9
		c0.1,0.2,0.2,0.5,0.3,0.7c2.7,4.3,6,7,12.2,7c2.3,0,3.8-0.1,5.2-0.8C273,83.2,278.3,75.6,275.9,71.7z"/>
	<path class="st2" d="M257.7,75.7c0,0,4,2.6,5,2.7l-4.2-2.9c0.2-4.5-1.2-5.9-3.3-5.6c-0.2,0-0.3,0.1-0.5,0.1
		C256.8,69.8,257.8,71.3,257.7,75.7z"/>
	<path class="st2" d="M262.6,68.7c0,0,2.6,3.1,5.1,3.1v-0.6c-2.6,0.1-5.1-3.1-5.1-3.1c-1,0.9-7.1,2.1-7.8,0.6
		c-0.1-0.2-0.2-0.5-0.2-0.7c-0.1,0.3,0,0.8,0.2,1.3C255.5,70.8,261.7,69.6,262.6,68.7z"/>
</g>
<g>
	<path class="st1" d="M257.7,112.9l-3.5,2.5c0,0-1.8-5-3.1-8.1c-0.6-1.3-2.3-1.7-3.1-3.5c-1.4-3.1,0.2-5.8,1.9-3.9
		c1.9,2.2,4.7,3.9,5.2,5.2C256.1,107.3,257.7,112.9,257.7,112.9z"/>
	<path class="st1" d="M260.5,115c0.2,1.7,0,4.4-1.4,7.5c0,0-3.1-3.7-3.4-5.3c0,0-0.9-6.4-1.7-10.5c-0.4-1.7-2.3-2.6-2.8-5
		c-0.9-4.1,1.7-6.9,3.2-4.2c1.7,3.2,4.6,5.8,5,7.5C259.9,107.8,260.2,112.5,260.5,115z"/>
	<path class="st2" d="M256,111.8c0,0-0.3-2.4-1.2-6.5c-0.4-1.7-2.3-2.6-2.8-5c-0.3-1.4-0.2-2.7,0.1-3.6c-0.9,0.7-1.7,2.6-1.2,5
		c0.5,2.3,2.5,3.3,2.8,5c0.2,1.2,0.5,2.4,0.7,3.6l-2.7-1C251.8,109.2,256,111.8,256,111.8z"/>
	<path class="st1" d="M259.2,114.3c-3.6-3.2-7.5-5.2-10.1-6.5c-3.8-1.9-2.8,0.7-9.3,2.4c-0.9,0.2-1.9,0.8-1.1,2.5
		c0.8,1.6,6.9,0.4,7.8-0.6c0,0,2.6,3.1,5.1,3.1c0,0-0.4,2.1,0.2,3.1c0,0-3.6,1.9-5.2,3.5l-4.3-2.9c-0.3-4.5-1.1-5.8-3.3-5.6
		c-2,0.2-1.8,2.1-1.8,3.7c0.1,2.8-0.7,3.3,0,4.4c2.7,4.3,6,7,12.2,7c2.3,0,3.8-0.1,5.2-0.8C257.2,126.6,263.2,117.9,259.2,114.3z"/>
	<path class="st2" d="M259.9,115.2c1.3,4.1-3.4,10.8-5.5,11.8c-1.4,0.7-2.9,0.8-5.2,0.8c-6.2,0-9.5-2.6-12.1-6.9
		c0.1,0.2,0.2,0.5,0.3,0.7c2.7,4.3,6,7,12.2,7c2.3,0,3.8-0.1,5.2-0.8C257,126.7,262.3,119.1,259.9,115.2z"/>
	<path class="st2" d="M241.7,119.2c0,0,4,2.6,5,2.7l-4.2-2.9c0.2-4.5-1.2-5.9-3.3-5.6c-0.2,0-0.3,0.1-0.5,0.1
		C240.8,113.3,241.8,114.8,241.7,119.2z"/>
	<path class="st2" d="M246.6,112.2c0,0,2.6,3.1,5.1,3.1v-0.6c-2.6,0.1-5.1-3.1-5.1-3.1c-1,0.9-7.1,2.1-7.8,0.6
		c-0.1-0.2-0.2-0.5-0.2-0.7c-0.1,0.3,0,0.8,0.2,1.3C239.5,114.3,245.7,113.1,246.6,112.2z"/>
</g>
<g>
	<path class="st1" d="M321.2,135.7l-3.5,2.5c0,0-1.8-5-3.1-8.1c-0.6-1.3-2.3-1.7-3.1-3.5c-1.4-3.1,0.2-5.8,1.9-3.9
		c1.9,2.2,4.7,3.9,5.2,5.2C319.6,130.1,321.2,135.7,321.2,135.7z"/>
	<path class="st1" d="M324,137.7c0.2,1.7,0,4.4-1.4,7.5c0,0-3.1-3.7-3.4-5.3c0,0-0.9-6.4-1.7-10.5c-0.4-1.7-2.3-2.6-2.8-5
		c-0.9-4.1,1.7-6.9,3.2-4.2c1.7,3.2,4.6,5.8,5,7.5C323.4,130.6,323.7,135.2,324,137.7z"/>
	<path class="st2" d="M319.5,134.5c0,0-0.3-2.4-1.2-6.5c-0.4-1.7-2.3-2.6-2.8-5c-0.3-1.4-0.2-2.7,0.1-3.6c-0.9,0.7-1.7,2.6-1.2,5
		c0.5,2.3,2.5,3.3,2.8,5c0.2,1.2,0.5,2.4,0.7,3.6l-2.7-1C315.3,132,319.5,134.5,319.5,134.5z"/>
	<path class="st1" d="M322.7,137.1c-3.6-3.2-7.5-5.2-10.1-6.5c-3.8-1.9-2.8,0.7-9.3,2.4c-0.9,0.2-1.9,0.8-1.1,2.5
		c0.8,1.6,6.9,0.4,7.8-0.6c0,0,2.6,3.1,5.1,3.1c0,0-0.4,2.1,0.2,3.1c0,0-3.6,1.9-5.2,3.5l-4.3-2.9c-0.3-4.5-1.1-5.8-3.3-5.6
		c-2,0.2-1.8,2.1-1.8,3.7c0.1,2.8-0.7,3.3,0,4.4c2.7,4.3,6,7,12.2,7c2.3,0,3.8-0.1,5.2-0.8C320.7,149.4,326.7,140.7,322.7,137.1z"/>
	<path class="st2" d="M323.4,137.9c1.3,4.1-3.4,10.8-5.5,11.8c-1.4,0.7-2.9,0.8-5.2,0.8c-6.2,0-9.5-2.6-12.1-6.9
		c0.1,0.2,0.2,0.5,0.3,0.7c2.7,4.3,6,7,12.2,7c2.3,0,3.8-0.1,5.2-0.8C320.5,149.5,325.8,141.9,323.4,137.9z"/>
	<path class="st2" d="M305.2,141.9c0,0,4,2.6,5,2.7l-4.2-2.9c0.2-4.5-1.2-5.9-3.3-5.6c-0.2,0-0.3,0.1-0.5,0.1
		C304.3,136.1,305.3,137.5,305.2,141.9z"/>
	<path class="st2" d="M310.1,135c0,0,2.6,3.1,5.1,3.1v-0.6c-2.6,0.1-5.1-3.1-5.1-3.1c-1,0.9-7.1,2.1-7.8,0.6
		c-0.1-0.2-0.2-0.5-0.2-0.7c-0.1,0.3,0,0.8,0.2,1.3C303,137.1,309.2,135.9,310.1,135z"/>
</g>
<g>
	<path class="st1" d="M342.9,67.2l-3.5,2.5c0,0-1.8-5-3.1-8.1c-0.6-1.3-2.3-1.7-3.1-3.5c-1.4-3.1,0.2-5.8,1.9-3.9
		c1.9,2.2,4.7,3.9,5.2,5.2C341.3,61.6,342.9,67.2,342.9,67.2z"/>
	<path class="st1" d="M345.7,69.2c0.2,1.7,0,4.4-1.4,7.5c0,0-3.1-3.7-3.4-5.3c0,0-0.9-6.4-1.7-10.5c-0.4-1.7-2.3-2.6-2.8-5
		c-0.9-4.1,1.7-6.9,3.2-4.2c1.7,3.2,4.6,5.8,5,7.5C345.1,62.1,345.4,66.7,345.7,69.2z"/>
	<path class="st2" d="M341.2,66c0,0-0.3-2.4-1.2-6.5c-0.4-1.7-2.3-2.6-2.8-5c-0.3-1.4-0.2-2.7,0.1-3.6c-0.9,0.7-1.7,2.6-1.2,5
		c0.5,2.3,2.5,3.3,2.8,5c0.2,1.2,0.5,2.4,0.7,3.6l-2.7-1C337,63.5,341.2,66,341.2,66z"/>
	<path class="st1" d="M344.4,68.6c-3.6-3.2-7.5-5.2-10.1-6.5c-3.8-1.9-2.8,0.7-9.3,2.4c-0.9,0.2-1.9,0.8-1.1,2.5
		c0.8,1.6,6.9,0.4,7.8-0.6c0,0,2.6,3.1,5.1,3.1c0,0-0.4,2.1,0.2,3.1c0,0-3.6,1.9-5.2,3.5l-4.3-2.9c-0.3-4.5-1.1-5.8-3.3-5.6
		c-2,0.2-1.8,2.1-1.8,3.7c0.1,2.8-0.7,3.3,0,4.4c2.7,4.3,6,7,12.2,7c2.3,0,3.8-0.1,5.2-0.8C342.4,80.9,348.4,72.2,344.4,68.6z"/>
	<path class="st2" d="M345.1,69.4c1.3,4.1-3.4,10.8-5.5,11.8c-1.4,0.7-2.9,0.8-5.2,0.8c-6.2,0-9.5-2.6-12.1-6.9
		c0.1,0.2,0.2,0.5,0.3,0.7c2.7,4.3,6,7,12.2,7c2.3,0,3.8-0.1,5.2-0.8C342.2,81,347.5,73.4,345.1,69.4z"/>
	<path class="st2" d="M326.9,73.4c0,0,4,2.6,5,2.7l-4.2-2.9c0.2-4.5-1.2-5.9-3.3-5.6c-0.2,0-0.3,0.1-0.5,0.1
		C326,67.6,327,69,326.9,73.4z"/>
	<path class="st2" d="M331.8,66.5c0,0,2.6,3.1,5.1,3.1V69c-2.6,0.1-5.1-3.1-5.1-3.1c-1,0.9-7.1,2.1-7.8,0.6
		c-0.1-0.2-0.2-0.5-0.2-0.7c-0.1,0.3,0,0.8,0.2,1.3C324.7,68.6,330.9,67.4,331.8,66.5z"/>
</g>
<g>
	<path class="st1" d="M385.8,114.4l-5,3.5c0,0-2.5-7-4.4-11.3c-0.8-1.8-3.2-2.4-4.3-4.9c-1.9-4.4,0.3-8.1,2.7-5.4
		c2.7,3.1,6.6,5.5,7.3,7.3C383.5,106.5,385.8,114.4,385.8,114.4z"/>
	<path class="st1" d="M389.8,117.2c0.3,2.4,0,6.1-2,10.5c0,0-4.3-5.1-4.8-7.5c0,0-1.2-9-2.4-14.7c-0.5-2.4-3.2-3.7-3.9-7
		c-1.2-5.7,2.4-9.7,4.5-5.9c2.4,4.4,6.5,8.2,7,10.5C389,107.2,389.3,113.8,389.8,117.2z"/>
	<path class="st2" d="M383.4,112.7c0,0-0.4-3.4-1.6-9.1c-0.5-2.4-3.2-3.7-3.9-7c-0.4-2-0.3-3.7,0.2-5c-1.3,1-2.3,3.7-1.6,7
		c0.7,3.3,3.4,4.7,3.9,7c0.3,1.7,0.7,3.3,1,5l-3.8-1.4C377.6,109.2,383.4,112.7,383.4,112.7z"/>
	<path class="st1" d="M388,116.4c-5-4.5-10.5-7.3-14.1-9.1c-5.3-2.6-3.9,1-13,3.4c-1.2,0.3-2.6,1.2-1.5,3.5c1.1,2.2,9.7,0.5,11-0.8
		c0,0,3.6,4.4,7.2,4.3c0,0-0.6,2.9,0.3,4.3c0,0-5.1,2.7-7.3,5l-6.1-4.1c-0.4-6.3-1.6-8.1-4.7-7.8c-2.9,0.3-2.6,3-2.5,5.2
		c0.1,4-0.9,4.6,0,6.2c3.7,6.1,8.4,9.8,17.2,9.8c3.3,0,5.3-0.1,7.4-1.1C385.1,133.6,393.5,121.4,388,116.4z"/>
	<path class="st2" d="M389,117.5c1.9,5.7-4.8,15.1-7.7,16.6c-2,1-4.1,1.1-7.4,1.1c-8.6,0-13.4-3.7-17-9.6c0.1,0.3,0.2,0.6,0.4,0.9
		c3.7,6.1,8.4,9.8,17.2,9.8c3.3,0,5.3-0.1,7.4-1.1C384.9,133.7,392.3,123.1,389,117.5z"/>
	<path class="st2" d="M363.3,123.1c0,0,5.6,3.6,7,3.8l-5.9-4c0.2-6.3-1.6-8.4-4.7-7.8c-0.2,0-0.5,0.1-0.7,0.1
		C362.1,114.9,363.5,116.9,363.3,123.1z"/>
	<path class="st2" d="M370.3,113.4c0,0,3.6,4.4,7.2,4.3v-0.8c-3.6,0.1-7.2-4.3-7.2-4.3c-1.3,1.3-9.9,3-11,0.8
		c-0.2-0.3-0.3-0.7-0.3-1c-0.1,0.5,0,1.1,0.3,1.9C360.3,116.3,368.9,114.7,370.3,113.4z"/>
</g>
<g>
	<path class="st1" d="M390.5,50.9l-3.5,2.5c0,0-1.8-5-3.1-8.1c-0.6-1.3-2.3-1.7-3.1-3.5c-1.4-3.1,0.2-5.8,1.9-3.9
		c1.9,2.2,4.7,3.9,5.2,5.2C388.8,45.3,390.5,50.9,390.5,50.9z"/>
	<path class="st1" d="M393.3,53c0.2,1.7,0,4.4-1.4,7.5c0,0-3.1-3.7-3.4-5.3c0,0-0.9-6.4-1.7-10.5c-0.4-1.7-2.3-2.6-2.8-5
		c-0.9-4.1,1.7-6.9,3.2-4.2c1.7,3.2,4.6,5.8,5,7.5C392.7,45.8,392.9,50.5,393.3,53z"/>
	<path class="st2" d="M388.7,49.8c0,0-0.3-2.4-1.2-6.5c-0.4-1.7-2.3-2.6-2.8-5c-0.3-1.4-0.2-2.7,0.1-3.6c-0.9,0.7-1.7,2.6-1.2,5
		c0.5,2.3,2.5,3.3,2.8,5c0.2,1.2,0.5,2.4,0.7,3.6l-2.7-1C384.6,47.2,388.7,49.8,388.7,49.8z"/>
	<path class="st1" d="M392,52.3c-3.6-3.2-7.5-5.2-10.1-6.5c-3.8-1.9-2.8,0.7-9.3,2.4c-0.9,0.2-1.9,0.8-1.1,2.5
		c0.8,1.6,6.9,0.4,7.8-0.6c0,0,2.6,3.1,5.1,3.1c0,0-0.4,2.1,0.2,3.1c0,0-3.6,1.9-5.2,3.5l-4.3-2.9c-0.3-4.5-1.1-5.8-3.3-5.6
		c-2,0.2-1.8,2.1-1.8,3.7c0.1,2.8-0.7,3.3,0,4.4c2.7,4.3,6,7,12.2,7c2.3,0,3.8-0.1,5.2-0.8C390,64.6,395.9,55.9,392,52.3z"/>
	<path class="st2" d="M392.7,53.2c1.3,4.1-3.4,10.8-5.5,11.8c-1.4,0.7-2.9,0.8-5.2,0.8c-6.2,0-9.5-2.6-12.1-6.9
		c0.1,0.2,0.2,0.5,0.3,0.7c2.7,4.3,6,7,12.2,7c2.3,0,3.8-0.1,5.2-0.8C389.8,64.7,395.1,57.1,392.7,53.2z"/>
	<path class="st2" d="M374.4,57.2c0,0,4,2.6,5,2.7l-4.2-2.9c0.2-4.5-1.2-5.9-3.3-5.6c-0.2,0-0.3,0.1-0.5,0.1
		C373.5,51.3,374.6,52.8,374.4,57.2z"/>
	<path class="st2" d="M379.4,50.2c0,0,2.6,3.1,5.1,3.1v-0.6c-2.6,0.1-5.1-3.1-5.1-3.1c-1,0.9-7.1,2.1-7.8,0.6
		c-0.1-0.2-0.2-0.5-0.2-0.7c-0.1,0.3,0,0.8,0.2,1.3C372.3,52.3,378.4,51.1,379.4,50.2z"/>
</g>
<g>
	<path class="st1" d="M306,98.8l-4.7,3.4c0,0-2.4-6.7-4.2-10.8c-0.8-1.7-3-2.3-4.1-4.7c-1.8-4.2,0.3-7.8,2.5-5.2
		c2.5,3,6.3,5.2,7,6.9C303.8,91.3,306,98.8,306,98.8z"/>
	<path class="st1" d="M309.8,101.6c0.3,2.3,0,5.9-1.9,10c0,0-4.1-4.9-4.6-7.2c0,0-1.2-8.6-2.3-14c-0.5-2.2-3.1-3.5-3.8-6.7
		c-1.2-5.5,2.3-9.3,4.3-5.6c2.3,4.2,6.2,7.8,6.7,10.1C309,92,309.3,98.2,309.8,101.6z"/>
	<path class="st2" d="M303.7,97.3c0,0-0.4-3.2-1.5-8.7c-0.5-2.2-3.1-3.5-3.8-6.7c-0.4-1.9-0.3-3.6,0.2-4.8c-1.2,0.9-2.2,3.5-1.6,6.7
		c0.7,3.1,3.3,4.4,3.8,6.7c0.3,1.6,0.6,3.2,0.9,4.8l-3.6-1.3C298.1,93.9,303.7,97.3,303.7,97.3z"/>
	<path class="st1" d="M308.1,100.7c-4.8-4.3-10.1-7-13.5-8.7c-5.1-2.5-3.8,0.9-12.5,3.2c-1.2,0.3-2.5,1.1-1.5,3.3
		c1,2.1,9.2,0.5,10.5-0.8c0,0,3.4,4.2,6.9,4.1c0,0-0.6,2.8,0.2,4.1c0,0-4.9,2.5-7,4.8l-5.8-3.9c-0.4-6-1.5-7.8-4.5-7.5
		c-2.7,0.3-2.4,2.8-2.4,5c0.1,3.8-0.9,4.4,0,6c3.6,5.8,8.1,9.4,16.4,9.4c3.1,0,5.1-0.1,7-1C305.3,117.2,313.3,105.5,308.1,100.7z"/>
	<path class="st2" d="M309,101.9c1.8,5.5-4.6,14.5-7.4,15.8c-1.9,0.9-3.9,1-7,1c-8.3,0-12.8-3.5-16.3-9.2c0.1,0.3,0.2,0.6,0.4,0.9
		c3.6,5.8,8.1,9.4,16.4,9.4c3.1,0,5.1-0.1,7-1C305.1,117.3,312.2,107.1,309,101.9z"/>
	<path class="st2" d="M284.5,107.2c0,0,5.4,3.5,6.7,3.6l-5.7-3.8c0.2-6.1-1.5-8-4.5-7.5c-0.2,0-0.4,0.1-0.6,0.1
		C283.3,99.4,284.7,101.3,284.5,107.2z"/>
	<path class="st2" d="M291.1,97.9c0,0,3.4,4.2,6.9,4.1v-0.8c-3.4,0.1-6.9-4.1-6.9-4.1c-1.3,1.3-9.5,2.9-10.5,0.8
		c-0.2-0.3-0.3-0.6-0.3-1c-0.1,0.5,0,1,0.3,1.8C281.6,100.7,289.8,99.1,291.1,97.9z"/>
</g>
<g>
	<path class="st1" d="M37,32.5l-4.7,3.4c0,0-2.4-6.7-4.2-10.8c-0.8-1.7-3-2.3-4.1-4.7c-1.8-4.2,0.3-7.8,2.5-5.2c2.5,3,6.3,5.2,7,6.9
		C34.8,25,37,32.5,37,32.5z"/>
	<path class="st1" d="M40.8,35.2c0.3,2.3,0,5.9-1.9,10c0,0-4.1-4.9-4.6-7.2c0,0-1.2-8.6-2.3-14c-0.5-2.2-3.1-3.5-3.8-6.7
		c-1.2-5.5,2.3-9.3,4.3-5.6c2.3,4.2,6.2,7.8,6.7,10.1C40,25.6,40.3,31.9,40.8,35.2z"/>
	<path class="st2" d="M34.7,30.9c0,0-0.4-3.2-1.5-8.7c-0.5-2.2-3.1-3.5-3.8-6.7c-0.4-1.9-0.3-3.6,0.2-4.8c-1.2,0.9-2.2,3.5-1.6,6.7
		c0.7,3.1,3.3,4.4,3.8,6.7c0.3,1.6,0.6,3.2,0.9,4.8l-3.6-1.3C29.1,27.5,34.7,30.9,34.7,30.9z"/>
	<path class="st1" d="M39.1,34.4c-4.8-4.3-10.1-7-13.5-8.7c-5.1-2.5-3.8,0.9-12.5,3.2c-1.2,0.3-2.5,1.1-1.5,3.3
		c1,2.1,9.2,0.5,10.5-0.8c0,0,3.4,4.2,6.9,4.1c0,0-0.6,2.8,0.2,4.1c0,0-4.9,2.5-7,4.8l-5.8-3.9c-0.4-6-1.5-7.8-4.5-7.5
		c-2.7,0.3-2.4,2.8-2.4,5c0.1,3.8-0.9,4.4,0,6c3.6,5.8,8.1,9.4,16.4,9.4c3.1,0,5.1-0.1,7-1C36.3,50.9,44.3,39.2,39.1,34.4z"/>
	<path class="st2" d="M40,35.5c1.8,5.5-4.6,14.5-7.4,15.8c-1.9,0.9-3.9,1-7,1c-8.3,0-12.8-3.5-16.3-9.2c0.1,0.3,0.2,0.6,0.4,0.9
		c3.6,5.8,8.1,9.4,16.4,9.4c3.1,0,5.1-0.1,7-1C36.1,51,43.2,40.8,40,35.5z"/>
	<path class="st2" d="M15.5,40.8c0,0,5.4,3.5,6.7,3.6l-5.7-3.8c0.2-6.1-1.5-8-4.5-7.5c-0.2,0-0.4,0.1-0.6,0.1
		C14.3,33,15.7,34.9,15.5,40.8z"/>
	<path class="st2" d="M22.1,31.5c0,0,3.4,4.2,6.9,4.1v-0.8c-3.4,0.1-6.9-4.1-6.9-4.1c-1.3,1.3-9.5,2.9-10.5,0.8
		c-0.2-0.3-0.3-0.6-0.3-1c-0.1,0.5,0,1,0.3,1.8C12.6,34.4,20.8,32.8,22.1,31.5z"/>
</g>
<g>
	<path class="st1" d="M125,135.7l-6.1,4.3c0,0-3-8.5-5.4-13.8c-1-2.2-3.9-3-5.2-6c-2.4-5.3,0.4-9.9,3.2-6.6c3.3,3.8,8,6.7,9,8.9
		C122.1,126,125,135.7,125,135.7z"/>
	<path class="st1" d="M129.8,139.2c0.4,2.9,0.1,7.5-2.5,12.8c0,0-5.2-6.3-5.9-9.2c0,0-1.5-11-3-17.9c-0.6-2.9-3.9-4.5-4.8-8.5
		c-1.5-7,3-11.8,5.5-7.1c3,5.4,7.9,10,8.6,12.9C128.8,126.9,129.2,134.9,129.8,139.2z"/>
	<path class="st2" d="M122,133.7c0,0-0.5-4.1-2-11.1c-0.6-2.9-3.9-4.5-4.8-8.5c-0.5-2.4-0.3-4.6,0.2-6.2c-1.6,1.2-2.9,4.5-2,8.5
		s4.2,5.7,4.8,8.6c0.4,2,0.8,4.1,1.2,6.1l-4.6-1.7C114.9,129.3,122,133.7,122,133.7z"/>
	<path class="st1" d="M127.6,138.1c-6.1-5.6-12.9-8.9-17.3-11.1c-6.5-3.2-4.8,1.2-15.9,4.1c-1.5,0.4-3.2,1.5-1.9,4.2
		c1.3,2.7,11.8,0.6,13.4-1c0,0,4.4,5.4,8.8,5.3c0,0-0.8,3.6,0.3,5.3c0,0-6.2,3.2-8.9,6.1l-7.4-5c-0.5-7.7-1.9-9.9-5.7-9.6
		c-3.5,0.3-3.1,3.6-3,6.3c0.1,4.9-1.2,5.7,0,7.6c4.6,7.4,10.3,12,21,12c4,0,6.5-0.1,9-1.3C124.1,159.1,134.3,144.2,127.6,138.1z"/>
	<path class="st2" d="M128.8,139.5c2.3,7-5.9,18.5-9.4,20.2c-2.5,1.2-5,1.3-9,1.3c-10.5,0-16.3-4.5-20.8-11.8
		c0.1,0.4,0.3,0.8,0.5,1.2c4.6,7.4,10.3,12,21,12c4,0,6.5-0.1,9-1.3C123.8,159.3,132.9,146.3,128.8,139.5z"/>
	<path class="st2" d="M97.5,146.3c0,0,6.9,4.4,8.6,4.7l-7.3-4.9c0.3-7.7-2-10.2-5.7-9.6c-0.3,0-0.6,0.1-0.8,0.2
		C96,136.3,97.8,138.8,97.5,146.3z"/>
	<path class="st2" d="M106,134.4c0,0,4.4,5.4,8.8,5.3v-1c-4.4,0.1-8.8-5.3-8.8-5.3c-1.6,1.6-12.1,3.6-13.4,1
		c-0.2-0.4-0.3-0.8-0.4-1.3c-0.1,0.6,0,1.3,0.4,2.3C93.8,138.1,104.3,136,106,134.4z"/>
</g>
<g>
	<path class="st1" d="M61.8,94.4l-2.4,1.7c0,0-1.2-3.4-2.2-5.6c-0.4-0.9-1.6-1.2-2.1-2.4c-0.9-2.1,0.2-4,1.3-2.7
		c1.3,1.5,3.2,2.7,3.6,3.6C60.7,90.5,61.8,94.4,61.8,94.4z"/>
	<path class="st1" d="M63.7,95.8c0.2,1.2,0,3-1,5.2c0,0-2.1-2.5-2.4-3.7c0,0-0.6-4.4-1.2-7.2c-0.2-1.2-1.6-1.8-1.9-3.4
		c-0.6-2.8,1.2-4.8,2.2-2.9c1.2,2.2,3.2,4,3.4,5.2C63.3,90.8,63.5,94,63.7,95.8z"/>
	<path class="st2" d="M60.6,93.5c0,0-0.2-1.7-0.8-4.5c-0.2-1.2-1.6-1.8-1.9-3.4c-0.2-1-0.1-1.8,0.1-2.5c-0.6,0.5-1.1,1.8-0.8,3.4
		c0.3,1.6,1.7,2.3,1.9,3.4c0.2,0.8,0.3,1.6,0.5,2.5l-1.9-0.7C57.8,91.8,60.6,93.5,60.6,93.5z"/>
	<path class="st1" d="M62.9,95.3c-2.5-2.2-5.2-3.6-6.9-4.4c-2.6-1.3-1.9,0.5-6.4,1.7c-0.6,0.2-1.3,0.6-0.8,1.7
		c0.5,1.1,4.7,0.3,5.4-0.4c0,0,1.8,2.2,3.5,2.1c0,0-0.3,1.4,0.1,2.1c0,0-2.5,1.3-3.6,2.4l-3-2c-0.2-3.1-0.8-4-2.3-3.8
		c-1.4,0.1-1.3,1.5-1.2,2.5c0.1,2-0.5,2.3,0,3.1c1.8,3,4.1,4.8,8.4,4.8c1.6,0,2.6,0,3.6-0.5C61.5,103.8,65.6,97.8,62.9,95.3z"/>
	<path class="st2" d="M63.3,95.9c0.9,2.8-2.4,7.4-3.8,8.1c-1,0.5-2,0.5-3.6,0.5c-4.2,0-6.6-1.8-8.4-4.7c0,0.2,0.1,0.3,0.2,0.5
		c1.8,3,4.1,4.8,8.4,4.8c1.6,0,2.6,0,3.6-0.5C61.3,103.8,65,98.6,63.3,95.9z"/>
	<path class="st2" d="M50.7,98.6c0,0,2.8,1.8,3.4,1.9l-2.9-2c0.1-3.1-0.8-4.1-2.3-3.8c-0.1,0-0.2,0-0.3,0.1
		C50.1,94.6,50.9,95.6,50.7,98.6z"/>
	<path class="st2" d="M54.2,93.8c0,0,1.8,2.2,3.5,2.1v-0.4c-1.8,0.1-3.5-2.1-3.5-2.1c-0.7,0.6-4.9,1.5-5.4,0.4
		c-0.1-0.2-0.1-0.3-0.2-0.5c0,0.2,0,0.5,0.2,0.9C49.3,95.3,53.5,94.5,54.2,93.8z"/>
</g>
<g>
	<path class="st1" d="M95.8,103.5l-2.4,1.7c0,0-1.2-3.4-2.2-5.6c-0.4-0.9-1.6-1.2-2.1-2.4c-0.9-2.1,0.2-4,1.3-2.7
		c1.3,1.5,3.2,2.7,3.6,3.6C94.7,99.6,95.8,103.5,95.8,103.5z"/>
	<path class="st1" d="M97.7,104.9c0.2,1.2,0,3-1,5.2c0,0-2.1-2.5-2.4-3.7c0,0-0.6-4.4-1.2-7.2c-0.2-1.2-1.6-1.8-1.9-3.4
		C90.6,93,92.4,91,93.4,93c1.2,2.2,3.2,4,3.4,5.2C97.3,99.9,97.5,103.1,97.7,104.9z"/>
	<path class="st2" d="M94.6,102.6c0,0-0.2-1.7-0.8-4.5c-0.2-1.2-1.6-1.8-1.9-3.4c-0.2-1-0.1-1.8,0.1-2.5c-0.6,0.5-1.1,1.8-0.8,3.4
		c0.3,1.6,1.7,2.3,1.9,3.4c0.2,0.8,0.3,1.6,0.5,2.5l-1.9-0.7C91.8,100.9,94.6,102.6,94.6,102.6z"/>
	<path class="st1" d="M96.9,104.4c-2.5-2.2-5.2-3.6-6.9-4.4c-2.6-1.3-1.9,0.5-6.4,1.7c-0.6,0.2-1.3,0.6-0.8,1.7
		c0.5,1.1,4.7,0.3,5.4-0.4c0,0,1.8,2.2,3.5,2.1c0,0-0.3,1.4,0.1,2.1c0,0-2.5,1.3-3.6,2.4l-3-2c-0.2-3.1-0.8-4-2.3-3.8
		c-1.4,0.1-1.3,1.5-1.2,2.5c0.1,2-0.5,2.3,0,3.1c1.8,3,4.1,4.8,8.4,4.8c1.6,0,2.6,0,3.6-0.5C95.5,112.9,99.6,106.9,96.9,104.4z"/>
	<path class="st2" d="M97.3,105c0.9,2.8-2.4,7.4-3.8,8.1c-1,0.5-2,0.5-3.6,0.5c-4.2,0-6.6-1.8-8.4-4.7c0,0.2,0.1,0.3,0.2,0.5
		c1.8,3,4.1,4.8,8.4,4.8c1.6,0,2.6,0,3.6-0.5C95.3,112.9,99,107.7,97.3,105z"/>
	<path class="st2" d="M84.7,107.7c0,0,2.8,1.8,3.4,1.9l-2.9-2c0.1-3.1-0.8-4.1-2.3-3.8c-0.1,0-0.2,0-0.3,0.1
		C84.1,103.7,84.9,104.7,84.7,107.7z"/>
	<path class="st2" d="M88.2,102.9c0,0,1.8,2.2,3.5,2.1v-0.4c-1.8,0.1-3.5-2.1-3.5-2.1c-0.7,0.6-4.9,1.5-5.4,0.4
		c-0.1-0.2-0.1-0.3-0.2-0.5c0,0.2,0,0.5,0.2,0.9C83.3,104.4,87.5,103.6,88.2,102.9z"/>
</g>
<g>
	<path class="st1" d="M144.7,97.5l-2.4,1.7c0,0-1.2-3.4-2.2-5.6c-0.4-0.9-1.6-1.2-2.1-2.4c-0.9-2.1,0.2-4,1.3-2.7
		c1.3,1.5,3.2,2.7,3.6,3.6C143.5,93.6,144.7,97.5,144.7,97.5z"/>
	<path class="st1" d="M146.6,98.9c0.2,1.2,0,3-1,5.2c0,0-2.1-2.5-2.4-3.7c0,0-0.6-4.4-1.2-7.2c-0.2-1.2-1.6-1.8-1.9-3.4
		c-0.6-2.8,1.2-4.8,2.2-2.9c1.2,2.2,3.2,4,3.4,5.2C146.2,93.9,146.3,97.1,146.6,98.9z"/>
	<path class="st2" d="M143.5,96.6c0,0-0.2-1.7-0.8-4.5c-0.2-1.2-1.6-1.8-1.9-3.4c-0.2-1-0.1-1.8,0.1-2.5c-0.6,0.5-1.1,1.8-0.8,3.4
		c0.3,1.6,1.7,2.3,1.9,3.4c0.2,0.8,0.3,1.6,0.5,2.5l-1.9-0.7C140.6,94.9,143.5,96.6,143.5,96.6z"/>
	<path class="st1" d="M145.7,98.4c-2.5-2.2-5.2-3.6-6.9-4.4c-2.6-1.3-1.9,0.5-6.4,1.7c-0.6,0.2-1.3,0.6-0.8,1.7
		c0.5,1.1,4.7,0.3,5.4-0.4c0,0,1.8,2.2,3.5,2.1c0,0-0.3,1.4,0.1,2.1c0,0-2.5,1.3-3.6,2.4l-3-2c-0.2-3.1-0.8-4-2.3-3.8
		c-1.4,0.1-1.3,1.5-1.2,2.5c0.1,2-0.5,2.3,0,3.1c1.8,3,4.1,4.8,8.4,4.8c1.6,0,2.6,0,3.6-0.5C144.3,106.9,148.4,100.9,145.7,98.4z"/>
	<path class="st2" d="M146.2,99c0.9,2.8-2.4,7.4-3.8,8.1c-1,0.5-2,0.5-3.6,0.5c-4.2,0-6.6-1.8-8.4-4.7c0,0.2,0.1,0.3,0.2,0.5
		c1.8,3,4.1,4.8,8.4,4.8c1.6,0,2.6,0,3.6-0.5C144.2,106.9,147.8,101.7,146.2,99z"/>
	<path class="st2" d="M133.6,101.7c0,0,2.8,1.8,3.4,1.9l-2.9-2c0.1-3.1-0.8-4.1-2.3-3.8c-0.1,0-0.2,0-0.3,0.1
		C133,97.7,133.7,98.7,133.6,101.7z"/>
	<path class="st2" d="M137,96.9c0,0,1.8,2.2,3.5,2.1v-0.4c-1.8,0.1-3.5-2.1-3.5-2.1c-0.7,0.6-4.9,1.5-5.4,0.4
		c-0.1-0.2-0.1-0.3-0.2-0.5c0,0.2,0,0.5,0.2,0.9C132.1,98.4,136.4,97.6,137,96.9z"/>
</g>
<g>
	<path class="st1" d="M198.8,151.3l-2.4,1.7c0,0-1.2-3.4-2.2-5.6c-0.4-0.9-1.6-1.2-2.1-2.4c-0.9-2.1,0.2-4,1.3-2.7
		c1.3,1.5,3.2,2.7,3.6,3.6C197.7,147.4,198.8,151.3,198.8,151.3z"/>
	<path class="st1" d="M200.7,152.7c0.2,1.2,0,3-1,5.2c0,0-2.1-2.5-2.4-3.7c0,0-0.6-4.4-1.2-7.2c-0.2-1.2-1.6-1.8-1.9-3.4
		c-0.6-2.8,1.2-4.8,2.2-2.9c1.2,2.2,3.2,4,3.4,5.2C200.3,147.7,200.5,150.9,200.7,152.7z"/>
	<path class="st2" d="M197.6,150.4c0,0-0.2-1.7-0.8-4.5c-0.2-1.2-1.6-1.8-1.9-3.4c-0.2-1-0.1-1.8,0.1-2.5c-0.6,0.5-1.1,1.8-0.8,3.4
		c0.3,1.6,1.7,2.3,1.9,3.4c0.2,0.8,0.3,1.6,0.5,2.5l-1.9-0.7C194.8,148.7,197.6,150.4,197.6,150.4z"/>
	<path class="st1" d="M199.9,152.2c-2.5-2.2-5.2-3.6-6.9-4.4c-2.6-1.3-1.9,0.5-6.4,1.7c-0.6,0.2-1.3,0.6-0.8,1.7
		c0.5,1.1,4.7,0.3,5.4-0.4c0,0,1.8,2.2,3.5,2.1c0,0-0.3,1.4,0.1,2.1c0,0-2.5,1.3-3.6,2.4l-3-2c-0.2-3.1-0.8-4-2.3-3.8
		c-1.4,0.1-1.3,1.5-1.2,2.5c0.1,2-0.5,2.3,0,3.1c1.8,3,4.1,4.8,8.4,4.8c1.6,0,2.6,0,3.6-0.5C198.5,160.7,202.6,154.7,199.9,152.2z"
		/>
	<path class="st2" d="M200.3,152.8c0.9,2.8-2.4,7.4-3.8,8.1c-1,0.5-2,0.5-3.6,0.5c-4.2,0-6.6-1.8-8.4-4.7c0,0.2,0.1,0.3,0.2,0.5
		c1.8,3,4.1,4.8,8.4,4.8c1.6,0,2.6,0,3.6-0.5C198.3,160.7,202,155.5,200.3,152.8z"/>
	<path class="st2" d="M187.7,155.5c0,0,2.8,1.8,3.4,1.9l-2.9-2c0.1-3.1-0.8-4.1-2.3-3.8c-0.1,0-0.2,0-0.3,0.1
		C187.1,151.5,187.9,152.5,187.7,155.5z"/>
	<path class="st2" d="M191.2,150.7c0,0,1.8,2.2,3.5,2.1v-0.4c-1.8,0.1-3.5-2.1-3.5-2.1c-0.7,0.6-4.9,1.5-5.4,0.4
		c-0.1-0.2-0.1-0.3-0.2-0.5c0,0.2,0,0.5,0.2,0.9C186.3,152.2,190.5,151.4,191.2,150.7z"/>
</g>
<g>
	<path class="st1" d="M236,88.8l-2.4,1.7c0,0-1.2-3.4-2.2-5.6c-0.4-0.9-1.6-1.2-2.1-2.4c-0.9-2.1,0.2-4,1.3-2.7
		c1.3,1.5,3.2,2.7,3.6,3.6C234.8,84.9,236,88.8,236,88.8z"/>
	<path class="st1" d="M237.9,90.2c0.2,1.2,0,3-1,5.2c0,0-2.1-2.5-2.4-3.7c0,0-0.6-4.4-1.2-7.2c-0.2-1.2-1.6-1.8-1.9-3.4
		c-0.6-2.8,1.2-4.8,2.2-2.9c1.2,2.2,3.2,4,3.4,5.2C237.5,85.3,237.6,88.5,237.9,90.2z"/>
	<path class="st2" d="M234.8,88c0,0-0.2-1.7-0.8-4.5c-0.2-1.2-1.6-1.8-1.9-3.4c-0.2-1-0.1-1.8,0.1-2.5c-0.6,0.5-1.1,1.8-0.8,3.4
		c0.3,1.6,1.7,2.3,1.9,3.4c0.2,0.8,0.3,1.6,0.5,2.5l-1.9-0.7C231.9,86.3,234.8,88,234.8,88z"/>
	<path class="st1" d="M237,89.8c-2.5-2.2-5.2-3.6-6.9-4.4c-2.6-1.3-1.9,0.5-6.4,1.7c-0.6,0.2-1.3,0.6-0.8,1.7
		c0.5,1.1,4.7,0.3,5.4-0.4c0,0,1.8,2.2,3.5,2.1c0,0-0.3,1.4,0.1,2.1c0,0-2.5,1.3-3.6,2.4l-3-2c-0.2-3.1-0.8-4-2.3-3.8
		c-1.4,0.1-1.3,1.5-1.2,2.5c0.1,2-0.5,2.3,0,3.1c1.8,3,4.1,4.8,8.4,4.8c1.6,0,2.6,0,3.6-0.5C235.6,98.2,239.7,92.2,237,89.8z"/>
	<path class="st2" d="M237.5,90.4c0.9,2.8-2.4,7.4-3.8,8.1c-1,0.5-2,0.5-3.6,0.5c-4.2,0-6.6-1.8-8.4-4.7c0,0.2,0.1,0.3,0.2,0.5
		c1.8,3,4.1,4.8,8.4,4.8c1.6,0,2.6,0,3.6-0.5C235.5,98.3,239.1,93.1,237.5,90.4z"/>
	<path class="st2" d="M224.9,93.1c0,0,2.8,1.8,3.4,1.9l-2.9-2c0.1-3.1-0.8-4.1-2.3-3.8c-0.1,0-0.2,0-0.3,0.1
		C224.3,89.1,225,90.1,224.9,93.1z"/>
	<path class="st2" d="M228.3,88.3c0,0,1.8,2.2,3.5,2.1V90c-1.8,0.1-3.5-2.1-3.5-2.1c-0.7,0.6-4.9,1.5-5.4,0.4
		c-0.1-0.2-0.1-0.3-0.2-0.5c0,0.2,0,0.5,0.2,0.9C223.4,89.8,227.7,88.9,228.3,88.3z"/>
</g>
<g>
	<path class="st1" d="M367.2,149.7l-2.4,1.7c0,0-1.2-3.4-2.2-5.6c-0.4-0.9-1.6-1.2-2.1-2.4c-0.9-2.1,0.2-4,1.3-2.7
		c1.3,1.5,3.2,2.7,3.6,3.6C366,145.8,367.2,149.7,367.2,149.7z"/>
	<path class="st1" d="M369.1,151.1c0.2,1.2,0,3-1,5.2c0,0-2.1-2.5-2.4-3.7c0,0-0.6-4.4-1.2-7.2c-0.2-1.2-1.6-1.8-1.9-3.4
		c-0.6-2.8,1.2-4.8,2.2-2.9c1.2,2.2,3.2,4,3.4,5.2C368.7,146.1,368.8,149.3,369.1,151.1z"/>
	<path class="st2" d="M366,148.8c0,0-0.2-1.7-0.8-4.5c-0.2-1.2-1.6-1.8-1.9-3.4c-0.2-1-0.1-1.8,0.1-2.5c-0.6,0.5-1.1,1.8-0.8,3.4
		c0.3,1.6,1.7,2.3,1.9,3.4c0.2,0.8,0.3,1.6,0.5,2.5l-1.9-0.7C363.1,147.1,366,148.8,366,148.8z"/>
	<path class="st1" d="M368.2,150.6c-2.5-2.2-5.2-3.6-6.9-4.4c-2.6-1.3-1.9,0.5-6.4,1.7c-0.6,0.2-1.3,0.6-0.8,1.7
		c0.5,1.1,4.7,0.3,5.4-0.4c0,0,1.8,2.2,3.5,2.1c0,0-0.3,1.4,0.1,2.1c0,0-2.5,1.3-3.6,2.4l-3-2c-0.2-3.1-0.8-4-2.3-3.8
		c-1.4,0.1-1.3,1.5-1.2,2.5c0.1,2-0.5,2.3,0,3.1c1.8,3,4.1,4.8,8.4,4.8c1.6,0,2.6,0,3.6-0.5C366.8,159.1,370.9,153.1,368.2,150.6z"
		/>
	<path class="st2" d="M368.7,151.2c0.9,2.8-2.4,7.4-3.8,8.1c-1,0.5-2,0.5-3.6,0.5c-4.2,0-6.6-1.8-8.4-4.7c0,0.2,0.1,0.3,0.2,0.5
		c1.8,3,4.1,4.8,8.4,4.8c1.6,0,2.6,0,3.6-0.5C366.7,159.1,370.3,153.9,368.7,151.2z"/>
	<path class="st2" d="M356.1,153.9c0,0,2.8,1.8,3.4,1.9l-2.9-2c0.1-3.1-0.8-4.1-2.3-3.8c-0.1,0-0.2,0-0.3,0.1
		C355.5,149.9,356.2,150.9,356.1,153.9z"/>
	<path class="st2" d="M359.5,149.1c0,0,1.8,2.2,3.5,2.1v-0.4c-1.8,0.1-3.5-2.1-3.5-2.1c-0.7,0.6-4.9,1.5-5.4,0.4
		c-0.1-0.2-0.1-0.3-0.2-0.5c0,0.2,0,0.5,0.2,0.9C354.6,150.6,358.9,149.8,359.5,149.1z"/>
</g>
<g>
	<path class="st1" d="M288.7,73.1l-1.5,1.1c0,0-0.8-2.2-1.4-3.5c-0.2-0.6-1-0.8-1.3-1.5c-0.6-1.4,0.1-2.5,0.8-1.7
		c0.8,1,2,1.7,2.3,2.2C288,70.7,288.7,73.1,288.7,73.1z"/>
	<path class="st1" d="M289.9,74c0.1,0.7,0,1.9-0.6,3.2c0,0-1.3-1.6-1.5-2.3c0,0-0.4-2.8-0.8-4.5c-0.2-0.7-1-1.1-1.2-2.2
		c-0.4-1.8,0.8-3,1.4-1.8c0.7,1.4,2,2.5,2.2,3.3C289.7,70.9,289.8,72.9,289.9,74z"/>
	<path class="st2" d="M287.9,72.6c0,0-0.1-1-0.5-2.8c-0.2-0.7-1-1.1-1.2-2.2c-0.1-0.6-0.1-1.2,0.1-1.6c-0.4,0.3-0.7,1.1-0.5,2.2
		c0.2,1,1.1,1.4,1.2,2.2c0.1,0.5,0.2,1,0.3,1.6l-1.2-0.4C286.1,71.5,287.9,72.6,287.9,72.6z"/>
	<path class="st1" d="M289.4,73.7c-1.5-1.4-3.3-2.3-4.4-2.8c-1.7-0.8-1.2,0.3-4,1c-0.4,0.1-0.8,0.4-0.5,1.1c0.3,0.7,3,0.2,3.4-0.2
		c0,0,1.1,1.4,2.2,1.3c0,0-0.2,0.9,0.1,1.3c0,0-1.6,0.8-2.3,1.5l-1.9-1.3c-0.1-1.9-0.5-2.5-1.4-2.4s-0.8,0.9-0.8,1.6
		c0,1.2-0.3,1.4,0,1.9c1.2,1.9,2.6,3,5.3,3c1,0,1.7,0,2.3-0.3C288.5,79.1,291.1,75.3,289.4,73.7z"/>
	<path class="st2" d="M289.7,74.1c0.6,1.8-1.5,4.7-2.4,5.1c-0.6,0.3-1.3,0.3-2.3,0.3c-2.7,0-4.1-1.1-5.3-3c0,0.1,0.1,0.2,0.1,0.3
		c1.2,1.9,2.6,3,5.3,3c1,0,1.7,0,2.3-0.3C288.4,79.1,290.7,75.8,289.7,74.1z"/>
	<path class="st2" d="M281.7,75.8c0,0,1.7,1.1,2.2,1.2l-1.8-1.2c0.1-2-0.5-2.6-1.4-2.4c-0.1,0-0.1,0-0.2,0
		C281.3,73.3,281.8,73.9,281.7,75.8z"/>
	<path class="st2" d="M283.9,72.8c0,0,1.1,1.4,2.2,1.3v-0.3c-1.1,0-2.2-1.3-2.2-1.3c-0.4,0.4-3.1,0.9-3.4,0.2
		c-0.1-0.1-0.1-0.2-0.1-0.3c0,0.1,0,0.3,0.1,0.6C280.8,73.7,283.5,73.2,283.9,72.8z"/>
</g>
<g>
	<path class="st1" d="M236.4,145.7l-1.5,1.1c0,0-0.8-2.2-1.4-3.5c-0.2-0.6-1-0.8-1.3-1.5c-0.6-1.4,0.1-2.5,0.8-1.7
		c0.8,1,2,1.7,2.3,2.2C235.7,143.3,236.4,145.7,236.4,145.7z"/>
	<path class="st1" d="M237.6,146.6c0.1,0.7,0,1.9-0.6,3.2c0,0-1.3-1.6-1.5-2.3c0,0-0.4-2.8-0.8-4.5c-0.2-0.7-1-1.1-1.2-2.2
		c-0.4-1.8,0.8-3,1.4-1.8c0.7,1.4,2,2.5,2.2,3.3C237.4,143.5,237.5,145.5,237.6,146.6z"/>
	<path class="st2" d="M235.6,145.2c0,0-0.1-1-0.5-2.8c-0.2-0.7-1-1.1-1.2-2.2c-0.1-0.6-0.1-1.2,0.1-1.6c-0.4,0.3-0.7,1.1-0.5,2.2
		c0.2,1,1.1,1.4,1.2,2.2c0.1,0.5,0.2,1,0.3,1.6l-1.2-0.4C233.8,144.1,235.6,145.2,235.6,145.2z"/>
	<path class="st1" d="M237.1,146.3c-1.5-1.4-3.3-2.3-4.4-2.8c-1.7-0.8-1.2,0.3-4,1c-0.4,0.1-0.8,0.4-0.5,1.1c0.3,0.7,3,0.2,3.4-0.2
		c0,0,1.1,1.4,2.2,1.3c0,0-0.2,0.9,0.1,1.3c0,0-1.6,0.8-2.3,1.5l-1.9-1.3c-0.1-1.9-0.5-2.5-1.4-2.4s-0.8,0.9-0.8,1.6
		c0,1.2-0.3,1.4,0,1.9c1.2,1.9,2.6,3,5.3,3c1,0,1.7,0,2.3-0.3C236.2,151.7,238.8,147.9,237.1,146.3z"/>
	<path class="st2" d="M237.4,146.7c0.6,1.8-1.5,4.7-2.4,5.1c-0.6,0.3-1.3,0.3-2.3,0.3c-2.7,0-4.1-1.1-5.3-3c0,0.1,0.1,0.2,0.1,0.3
		c1.2,1.9,2.6,3,5.3,3c1,0,1.7,0,2.3-0.3C236.1,151.7,238.4,148.4,237.4,146.7z"/>
	<path class="st2" d="M229.4,148.4c0,0,1.7,1.1,2.2,1.2l-1.8-1.2c0.1-2-0.5-2.6-1.4-2.4c-0.1,0-0.1,0-0.2,0
		C229,145.9,229.5,146.5,229.4,148.4z"/>
	<path class="st2" d="M231.6,145.4c0,0,1.1,1.4,2.2,1.3v-0.3c-1.1,0-2.2-1.3-2.2-1.3c-0.4,0.4-3.1,0.9-3.4,0.2
		c-0.1-0.1-0.1-0.2-0.1-0.3c0,0.1,0,0.3,0.1,0.6C228.5,146.3,231.2,145.8,231.6,145.4z"/>
</g>
<g>
	<path class="st1" d="M142.9,68.3l-1.5,1.1c0,0-0.8-2.2-1.4-3.5c-0.2-0.6-1-0.8-1.3-1.5c-0.6-1.4,0.1-2.5,0.8-1.7
		c0.8,1,2,1.7,2.3,2.2C142.2,65.9,142.9,68.3,142.9,68.3z"/>
	<path class="st1" d="M144.2,69.2c0.1,0.7,0,1.9-0.6,3.2c0,0-1.3-1.6-1.5-2.3c0,0-0.4-2.8-0.8-4.5c-0.2-0.7-1-1.1-1.2-2.2
		c-0.4-1.8,0.8-3,1.4-1.8c0.7,1.4,2,2.5,2.2,3.3C143.9,66.1,144,68.1,144.2,69.2z"/>
	<path class="st2" d="M142.2,67.8c0,0-0.1-1-0.5-2.8c-0.2-0.7-1-1.1-1.2-2.2c-0.1-0.6-0.1-1.2,0.1-1.6c-0.4,0.3-0.7,1.1-0.5,2.2
		c0.2,1,1.1,1.4,1.2,2.2c0.1,0.5,0.2,1,0.3,1.6l-1.2-0.4C140.4,66.7,142.2,67.8,142.2,67.8z"/>
	<path class="st1" d="M143.6,68.9c-1.5-1.4-3.3-2.3-4.4-2.8c-1.7-0.8-1.2,0.3-4,1c-0.4,0.1-0.8,0.4-0.5,1.1c0.3,0.7,3,0.2,3.4-0.2
		c0,0,1.1,1.4,2.2,1.3c0,0-0.2,0.9,0.1,1.3c0,0-1.6,0.8-2.3,1.5l-1.9-1.3c-0.1-1.9-0.5-2.5-1.4-2.4c-0.9,0.1-0.8,0.9-0.8,1.6
		c0,1.2-0.3,1.4,0,1.9c1.2,1.9,2.6,3,5.3,3c1,0,1.7,0,2.3-0.3C142.7,74.3,145.3,70.5,143.6,68.9z"/>
	<path class="st2" d="M143.9,69.3c0.6,1.8-1.5,4.7-2.4,5.1c-0.6,0.3-1.3,0.3-2.3,0.3c-2.7,0-4.1-1.1-5.3-3c0,0.1,0.1,0.2,0.1,0.3
		c1.2,1.9,2.6,3,5.3,3c1,0,1.7,0,2.3-0.3C142.6,74.3,144.9,71,143.9,69.3z"/>
	<path class="st2" d="M136,71c0,0,1.7,1.1,2.2,1.2l-1.8-1.2c0.1-2-0.5-2.6-1.4-2.4c-0.1,0-0.1,0-0.2,0C135.6,68.5,136,69.1,136,71z"
		/>
	<path class="st2" d="M138.1,68c0,0,1.1,1.4,2.2,1.3V69c-1.1,0-2.2-1.3-2.2-1.3c-0.4,0.4-3.1,0.9-3.4,0.2c-0.1-0.1-0.1-0.2-0.1-0.3
		c0,0.1,0,0.3,0.1,0.6C135.1,68.9,137.7,68.4,138.1,68z"/>
</g>
<g>
	<path class="st1" d="M46.5,65.7L45,66.8c0,0-0.8-2.2-1.4-3.5c-0.2-0.6-1-0.8-1.3-1.5c-0.6-1.4,0.1-2.5,0.8-1.7c0.8,1,2,1.7,2.3,2.2
		C45.8,63.2,46.5,65.7,46.5,65.7z"/>
	<path class="st1" d="M47.7,66.5c0.1,0.7,0,1.9-0.6,3.2c0,0-1.3-1.6-1.5-2.3c0,0-0.4-2.8-0.8-4.5c-0.2-0.7-1-1.1-1.2-2.2
		c-0.4-1.8,0.8-3,1.4-1.8c0.7,1.4,2,2.5,2.2,3.3C47.5,63.4,47.6,65.5,47.7,66.5z"/>
	<path class="st2" d="M45.7,65.2c0,0-0.1-1-0.5-2.8c-0.2-0.7-1-1.1-1.2-2.2c-0.1-0.6-0.1-1.2,0.1-1.6c-0.4,0.3-0.7,1.1-0.5,2.2
		c0.2,1,1.1,1.4,1.2,2.2c0.1,0.5,0.2,1,0.3,1.6l-1.2-0.4C43.9,64.1,45.7,65.2,45.7,65.2z"/>
	<path class="st1" d="M47.2,66.3c-1.5-1.4-3.3-2.3-4.4-2.8c-1.7-0.8-1.2,0.3-4,1c-0.4,0.1-0.8,0.4-0.5,1.1s3,0.2,3.4-0.2
		c0,0,1.1,1.4,2.2,1.3c0,0-0.2,0.9,0.1,1.3c0,0-1.6,0.8-2.3,1.5l-1.9-1.2c-0.1-1.9-0.5-2.5-1.4-2.4s-0.8,0.9-0.8,1.6
		c0,1.2-0.3,1.4,0,1.9c1.2,1.9,2.6,3,5.3,3c1,0,1.7,0,2.3-0.3C46.3,71.6,48.9,67.8,47.2,66.3z"/>
	<path class="st2" d="M47.5,66.6c0.6,1.8-1.5,4.7-2.4,5.1C44.5,72,43.8,72,42.8,72c-2.7,0-4.1-1.1-5.3-3c0,0.1,0.1,0.2,0.1,0.3
		c1.2,1.9,2.6,3,5.3,3c1,0,1.7,0,2.3-0.3C46.2,71.6,48.5,68.4,47.5,66.6z"/>
	<path class="st2" d="M39.5,68.4c0,0,1.7,1.1,2.2,1.2l-1.9-1.3c0.1-2-0.5-2.6-1.4-2.4c-0.1,0-0.1,0-0.2,0
		C39.1,65.8,39.6,66.5,39.5,68.4z"/>
	<path class="st2" d="M41.7,65.3c0,0,1.1,1.4,2.2,1.3v-0.3c-1.1,0-2.2-1.3-2.2-1.3c-0.4,0.4-3.1,0.9-3.4,0.2
		c-0.1-0.1-0.1-0.2-0.1-0.3c0,0.1,0,0.3,0.1,0.6C38.6,66.3,41.3,65.8,41.7,65.3z"/>
</g>
<g>
	<path class="st1" d="M19.8,111.4l-1.6,1.1c0,0-0.8-2.2-1.4-3.5c-0.2-0.6-1-0.8-1.3-1.5c-0.6-1.4,0.1-2.5,0.8-1.7
		c0.8,1,2,1.7,2.3,2.2C19,109,19.8,111.4,19.8,111.4z"/>
	<path class="st1" d="M21,112.3c0.1,0.7,0,1.9-0.6,3.2c0,0-1.3-1.6-1.5-2.3c0,0-0.4-2.8-0.8-4.5c-0.2-0.7-1-1.1-1.2-2.2
		c-0.4-1.8,0.8-3,1.4-1.8c0.7,1.4,2,2.5,2.2,3.3C20.7,109.2,20.8,111.2,21,112.3z"/>
	<path class="st2" d="M19,110.9c0,0-0.1-1-0.5-2.8c-0.2-0.7-1-1.1-1.2-2.2c-0.1-0.6-0.1-1.2,0.1-1.6c-0.4,0.3-0.7,1.1-0.5,2.2
		c0.2,1,1.1,1.4,1.2,2.2c0.1,0.5,0.2,1,0.3,1.6l-1.2-0.4C17.2,109.8,19,110.9,19,110.9z"/>
	<path class="st1" d="M20.4,112c-1.5-1.4-3.3-2.3-4.4-2.8c-1.7-0.8-1.2,0.3-4,1c-0.4,0.1-0.8,0.4-0.5,1.1c0.3,0.7,3,0.2,3.4-0.2
		c0,0,1.1,1.4,2.2,1.3c0,0-0.2,0.9,0.1,1.3c0,0-1.6,0.8-2.3,1.5l-1.9-1.3c-0.1-1.9-0.5-2.5-1.4-2.4c-0.9,0.1-0.8,0.9-0.8,1.6
		c0,1.2-0.3,1.4,0,1.9c1.2,1.9,2.6,3,5.3,3c1,0,1.7,0,2.3-0.3C19.5,117.3,22.1,113.6,20.4,112z"/>
	<path class="st2" d="M20.7,112.4c0.6,1.8-1.5,4.7-2.4,5.1c-0.6,0.3-1.3,0.3-2.3,0.3c-2.7,0-4.1-1.1-5.3-3c0,0.1,0.1,0.2,0.1,0.3
		c1.2,1.9,2.6,3,5.3,3c1,0,1.7,0,2.3-0.3C19.5,117.4,21.8,114.1,20.7,112.4z"/>
	<path class="st2" d="M12.8,114.1c0,0,1.7,1.1,2.2,1.2l-1.8-1.2c0.1-2-0.5-2.6-1.4-2.4c-0.1,0-0.1,0-0.2,0
		C12.4,111.6,12.9,112.2,12.8,114.1z"/>
	<path class="st2" d="M14.9,111.1c0,0,1.1,1.4,2.2,1.3v-0.3c-1.1,0-2.2-1.3-2.2-1.3c-0.4,0.4-3.1,0.9-3.4,0.2
		c-0.1-0.1-0.1-0.2-0.1-0.3c0,0.1,0,0.3,0.1,0.6C11.9,112,14.5,111.5,14.9,111.1z"/>
</g>
<g>
	<path class="st1" d="M178.4,109.9l-1.5,1.1c0,0-0.8-2.2-1.4-3.5c-0.2-0.6-1-0.8-1.3-1.5c-0.6-1.4,0.1-2.5,0.8-1.7
		c0.8,1,2,1.7,2.3,2.2C177.7,107.4,178.4,109.9,178.4,109.9z"/>
	<path class="st1" d="M179.7,110.7c0.1,0.7,0,1.9-0.6,3.2c0,0-1.3-1.6-1.5-2.3c0,0-0.4-2.8-0.8-4.5c-0.2-0.7-1-1.1-1.2-2.2
		c-0.4-1.8,0.8-3,1.4-1.8c0.7,1.4,2,2.5,2.2,3.3C179.4,107.6,179.5,109.7,179.7,110.7z"/>
	<path class="st2" d="M177.7,109.4c0,0-0.1-1-0.5-2.8c-0.2-0.7-1-1.1-1.2-2.2c-0.1-0.6-0.1-1.2,0.1-1.6c-0.4,0.3-0.7,1.1-0.5,2.2
		c0.2,1,1.1,1.4,1.2,2.2c0.1,0.5,0.2,1,0.3,1.6l-1.2-0.4C175.9,108.3,177.7,109.4,177.7,109.4z"/>
	<path class="st1" d="M179.1,110.5c-1.5-1.4-3.3-2.3-4.4-2.8c-1.7-0.8-1.2,0.3-4,1c-0.4,0.1-0.8,0.4-0.5,1.1c0.3,0.7,3,0.2,3.4-0.2
		c0,0,1.1,1.4,2.2,1.3c0,0-0.2,0.9,0.1,1.3c0,0-1.6,0.8-2.3,1.5l-1.9-1.3c-0.1-1.9-0.5-2.5-1.4-2.4s-0.8,0.9-0.8,1.6
		c0,1.2-0.3,1.4,0,1.9c1.2,1.9,2.6,3,5.3,3c1,0,1.7,0,2.3-0.3C178.2,115.8,180.8,112,179.1,110.5z"/>
	<path class="st2" d="M179.4,110.8c0.6,1.8-1.5,4.7-2.4,5.1c-0.6,0.3-1.3,0.3-2.3,0.3c-2.7,0-4.1-1.1-5.3-3c0,0.1,0.1,0.2,0.1,0.3
		c1.2,1.9,2.6,3,5.3,3c1,0,1.7,0,2.3-0.3C178.1,115.8,180.4,112.6,179.4,110.8z"/>
	<path class="st2" d="M171.5,112.6c0,0,1.7,1.1,2.2,1.2l-1.8-1.2c0.1-2-0.5-2.6-1.4-2.4c-0.1,0-0.1,0-0.2,0
		C171.1,110,171.5,110.7,171.5,112.6z"/>
	<path class="st2" d="M173.6,109.5c0,0,1.1,1.4,2.2,1.3v-0.3c-1.1,0-2.2-1.3-2.2-1.3c-0.4,0.4-3.1,0.9-3.4,0.2
		c-0.1-0.1-0.1-0.2-0.1-0.3c0,0.1,0,0.3,0.1,0.6C170.6,110.5,173.2,110,173.6,109.5z"/>
</g>
<g>
	<path class="st1" d="M330.8,107l-1.5,1.1c0,0-0.8-2.2-1.4-3.5c-0.2-0.6-1-0.8-1.3-1.5c-0.6-1.4,0.1-2.5,0.8-1.7
		c0.8,1,2,1.7,2.3,2.2C330.1,104.6,330.8,107,330.8,107z"/>
	<path class="st1" d="M332,107.9c0.1,0.7,0,1.9-0.6,3.2c0,0-1.3-1.6-1.5-2.3c0,0-0.4-2.8-0.8-4.5c-0.2-0.7-1-1.1-1.2-2.2
		c-0.4-1.8,0.8-3,1.4-1.8c0.7,1.4,2,2.5,2.2,3.3C331.8,104.8,331.9,106.8,332,107.9z"/>
	<path class="st2" d="M330,106.5c0,0-0.1-1-0.5-2.8c-0.2-0.7-1-1.1-1.2-2.2c-0.1-0.6-0.1-1.2,0.1-1.6c-0.4,0.3-0.7,1.1-0.5,2.2
		c0.2,1,1.1,1.4,1.2,2.2c0.1,0.5,0.2,1,0.3,1.6l-1.2-0.4C328.2,105.4,330,106.5,330,106.5z"/>
	<path class="st1" d="M331.5,107.6c-1.5-1.4-3.3-2.3-4.4-2.8c-1.7-0.8-1.2,0.3-4,1c-0.4,0.1-0.8,0.4-0.5,1.1c0.3,0.7,3,0.2,3.4-0.2
		c0,0,1.1,1.4,2.2,1.3c0,0-0.2,0.9,0.1,1.3c0,0-1.6,0.8-2.3,1.5l-1.9-1.3c-0.1-1.9-0.5-2.5-1.4-2.4s-0.8,0.9-0.8,1.6
		c0,1.2-0.3,1.4,0,1.9c1.2,1.9,2.6,3,5.3,3c1,0,1.7,0,2.3-0.3C330.6,113,333.2,109.2,331.5,107.6z"/>
	<path class="st2" d="M331.8,108c0.6,1.8-1.5,4.7-2.4,5.1c-0.6,0.3-1.3,0.3-2.3,0.3c-2.7,0-4.1-1.1-5.3-3c0,0.1,0.1,0.2,0.1,0.3
		c1.2,1.9,2.6,3,5.3,3c1,0,1.7,0,2.3-0.3C330.5,113,332.8,109.7,331.8,108z"/>
	<path class="st2" d="M323.8,109.7c0,0,1.7,1.1,2.2,1.2l-1.8-1.2c0.1-2-0.5-2.6-1.4-2.4c-0.1,0-0.1,0-0.2,0
		C323.4,107.2,323.9,107.8,323.8,109.7z"/>
	<path class="st2" d="M326,106.7c0,0,1.1,1.4,2.2,1.3v-0.3c-1.1,0-2.2-1.3-2.2-1.3c-0.4,0.4-3.1,0.9-3.4,0.2
		c-0.1-0.1-0.1-0.2-0.1-0.3c0,0.1,0,0.3,0.1,0.6C322.9,107.6,325.6,107.1,326,106.7z"/>
</g>
<g>
	<path class="st1" d="M369.9,79.1l-1.5,1.1c0,0-0.8-2.2-1.4-3.5c-0.2-0.6-1-0.8-1.3-1.5c-0.6-1.4,0.1-2.5,0.8-1.7
		c0.8,1,2,1.7,2.3,2.2C369.2,76.7,369.9,79.1,369.9,79.1z"/>
	<path class="st1" d="M371.2,80c0.1,0.7,0,1.9-0.6,3.2c0,0-1.3-1.6-1.5-2.3c0,0-0.4-2.8-0.8-4.5c-0.2-0.7-1-1.1-1.2-2.2
		c-0.4-1.8,0.8-3,1.4-1.8c0.7,1.4,2,2.5,2.2,3.3C370.9,76.9,371,79,371.2,80z"/>
	<path class="st2" d="M369.2,78.6c0,0-0.1-1-0.5-2.8c-0.2-0.7-1-1.1-1.2-2.2c-0.1-0.6-0.1-1.2,0.1-1.6c-0.4,0.3-0.7,1.1-0.5,2.2
		c0.2,1,1.1,1.4,1.2,2.2c0.1,0.5,0.2,1,0.3,1.6l-1.2-0.4C367.4,77.5,369.2,78.6,369.2,78.6z"/>
	<path class="st1" d="M370.6,79.8c-1.5-1.4-3.3-2.3-4.4-2.8c-1.7-0.8-1.2,0.3-4,1c-0.4,0.1-0.8,0.4-0.5,1.1c0.3,0.7,3,0.2,3.4-0.2
		c0,0,1.1,1.4,2.2,1.3c0,0-0.2,0.9,0.1,1.3c0,0-1.6,0.8-2.3,1.5l-1.9-1.3c-0.1-1.9-0.5-2.5-1.4-2.4s-0.8,0.9-0.8,1.6
		c0,1.2-0.3,1.4,0,1.9c1.2,1.9,2.6,3,5.3,3c1,0,1.7,0,2.3-0.3C369.7,85.1,372.3,81.3,370.6,79.8z"/>
	<path class="st2" d="M370.9,80.1c0.6,1.8-1.5,4.7-2.4,5.1c-0.6,0.3-1.3,0.3-2.3,0.3c-2.7,0-4.1-1.1-5.3-3c0,0.1,0.1,0.2,0.1,0.3
		c1.2,1.9,2.6,3,5.3,3c1,0,1.7,0,2.3-0.3C369.6,85.1,371.9,81.8,370.9,80.1z"/>
	<path class="st2" d="M363,81.8c0,0,1.7,1.1,2.2,1.2l-1.8-1.2c0.1-2-0.5-2.6-1.4-2.4c-0.1,0-0.1,0-0.2,0
		C362.6,79.3,363,79.9,363,81.8z"/>
	<path class="st2" d="M365.1,78.8c0,0,1.1,1.4,2.2,1.3v-0.3c-1.1,0-2.2-1.3-2.2-1.3c-0.4,0.4-3.1,0.9-3.4,0.2
		c-0.1-0.1-0.1-0.2-0.1-0.3c0,0.1,0,0.3,0.1,0.6C362,79.8,364.7,79.2,365.1,78.8z"/>
</g>
<g>
	<path class="st1" d="M63.2,42.7l-1.5,1.1c0,0-0.8-2.2-1.4-3.5c-0.2-0.6-1-0.8-1.3-1.5c-0.6-1.4,0.1-2.5,0.8-1.7
		c0.8,1,2,1.7,2.3,2.2C62.5,40.3,63.2,42.7,63.2,42.7z"/>
	<path class="st1" d="M64.5,43.6c0.1,0.7,0,1.9-0.6,3.2c0,0-1.3-1.6-1.5-2.3c0,0-0.4-2.8-0.8-4.5c-0.2-0.7-1-1.1-1.2-2.2
		c-0.4-1.8,0.8-3,1.4-1.8c0.7,1.4,2,2.5,2.2,3.3C64.2,40.5,64.3,42.6,64.5,43.6z"/>
	<path class="st2" d="M62.5,42.2c0,0-0.1-1-0.5-2.8c-0.2-0.7-1-1.1-1.2-2.2c-0.1-0.6-0.1-1.2,0.1-1.6c-0.4,0.3-0.7,1.1-0.5,2.2
		c0.2,1,1.1,1.4,1.2,2.2c0.1,0.5,0.2,1,0.3,1.6l-1.2-0.4C60.7,41.1,62.5,42.2,62.5,42.2z"/>
	<path class="st1" d="M63.9,43.4c-1.5-1.4-3.3-2.3-4.4-2.8c-1.7-0.8-1.2,0.3-4,1c-0.4,0.1-0.8,0.4-0.5,1.1s3,0.2,3.4-0.2
		c0,0,1.1,1.4,2.2,1.3c0,0-0.2,0.9,0.1,1.3c0,0-1.6,0.8-2.3,1.5l-1.9-1.3c-0.1-1.9-0.5-2.5-1.4-2.4s-0.8,0.9-0.8,1.6
		c0,1.2-0.3,1.4,0,1.9c1.2,1.9,2.6,3,5.3,3c1,0,1.7,0,2.3-0.3C63,48.7,65.6,44.9,63.9,43.4z"/>
	<path class="st2" d="M64.2,43.7c0.6,1.8-1.5,4.7-2.4,5.1c-0.6,0.3-1.3,0.3-2.3,0.3c-2.7,0-4.1-1.1-5.3-3c0,0.1,0.1,0.2,0.1,0.3
		c1.2,1.9,2.6,3,5.3,3c1,0,1.7,0,2.3-0.3C62.9,48.7,65.2,45.4,64.2,43.7z"/>
	<path class="st2" d="M56.3,45.4c0,0,1.7,1.1,2.2,1.2l-1.8-1.2c0.1-2-0.5-2.6-1.4-2.4c-0.1,0-0.1,0-0.2,0
		C55.9,42.9,56.3,43.5,56.3,45.4z"/>
	<path class="st2" d="M58.4,42.4c0,0,1.1,1.4,2.2,1.3v-0.3c-1.1,0-2.2-1.3-2.2-1.3C58,42.5,55.3,43,55,42.3
		c-0.1-0.1-0.1-0.2-0.1-0.3c0,0.1,0,0.3,0.1,0.6C55.3,43.4,58,42.8,58.4,42.4z"/>
</g>
<g>
	<path class="st1" d="M48.5,120.7l-1.5,1.1c0,0-0.8-2.2-1.4-3.5c-0.2-0.6-1-0.8-1.3-1.5c-0.6-1.4,0.1-2.5,0.8-1.7
		c0.8,1,2,1.7,2.3,2.2C47.8,118.3,48.5,120.7,48.5,120.7z"/>
	<path class="st1" d="M49.8,121.6c0.1,0.7,0,1.9-0.6,3.2c0,0-1.3-1.6-1.5-2.3c0,0-0.4-2.8-0.8-4.5c-0.2-0.7-1-1.1-1.2-2.2
		c-0.4-1.8,0.8-3,1.4-1.8c0.7,1.4,2,2.5,2.2,3.3C49.5,118.5,49.6,120.6,49.8,121.6z"/>
	<path class="st2" d="M47.8,120.2c0,0-0.1-1-0.5-2.8c-0.2-0.7-1-1.1-1.2-2.2c-0.1-0.6-0.1-1.2,0.1-1.6c-0.4,0.3-0.7,1.1-0.5,2.2
		c0.2,1,1.1,1.4,1.2,2.2c0.1,0.5,0.2,1,0.3,1.6l-1.2-0.4C46,119.1,47.8,120.2,47.8,120.2z"/>
	<path class="st1" d="M49.2,121.4c-1.5-1.4-3.3-2.3-4.4-2.8c-1.7-0.8-1.2,0.3-4,1c-0.4,0.1-0.8,0.4-0.5,1.1c0.3,0.7,3,0.2,3.4-0.2
		c0,0,1.1,1.4,2.2,1.3c0,0-0.2,0.9,0.1,1.3c0,0-1.6,0.8-2.3,1.5l-1.9-1.3c-0.1-1.9-0.5-2.5-1.4-2.4s-0.8,0.9-0.8,1.6
		c0,1.2-0.3,1.4,0,1.9c1.2,1.9,2.6,3,5.3,3c1,0,1.7,0,2.3-0.3C48.3,126.7,50.9,122.9,49.2,121.4z"/>
	<path class="st2" d="M49.5,121.7c0.6,1.8-1.5,4.7-2.4,5.1c-0.6,0.3-1.3,0.3-2.3,0.3c-2.7,0-4.1-1.1-5.3-3c0,0.1,0.1,0.2,0.1,0.3
		c1.2,1.9,2.6,3,5.3,3c1,0,1.7,0,2.3-0.3C48.2,126.7,50.5,123.4,49.5,121.7z"/>
	<path class="st2" d="M41.6,123.4c0,0,1.7,1.1,2.2,1.2l-1.8-1.2c0.1-2-0.5-2.6-1.4-2.4c-0.1,0-0.1,0-0.2,0
		C41.2,120.9,41.6,121.5,41.6,123.4z"/>
	<path class="st2" d="M43.7,120.4c0,0,1.1,1.4,2.2,1.3v-0.3c-1.1,0-2.2-1.3-2.2-1.3c-0.4,0.4-3.1,0.9-3.4,0.2
		c-0.1-0.1-0.1-0.2-0.1-0.3c0,0.1,0,0.3,0.1,0.6C40.6,121.4,43.3,120.8,43.7,120.4z"/>
</g>
<g>
	<path class="st1" d="M295.5,130.6l-1.5,1.1c0,0-0.8-2.2-1.4-3.5c-0.2-0.6-1-0.8-1.3-1.5c-0.6-1.4,0.1-2.5,0.8-1.7
		c0.8,1,2,1.7,2.3,2.2C294.8,128.2,295.5,130.6,295.5,130.6z"/>
	<path class="st1" d="M296.7,131.5c0.1,0.7,0,1.9-0.6,3.2c0,0-1.3-1.6-1.5-2.3c0,0-0.4-2.8-0.8-4.5c-0.2-0.7-1-1.1-1.2-2.2
		c-0.4-1.8,0.8-3,1.4-1.8c0.7,1.4,2,2.5,2.2,3.3C296.5,128.4,296.6,130.5,296.7,131.5z"/>
	<path class="st2" d="M294.8,130.1c0,0-0.1-1-0.5-2.8c-0.2-0.7-1-1.1-1.2-2.2c-0.1-0.6-0.1-1.2,0.1-1.6c-0.4,0.3-0.7,1.1-0.5,2.2
		c0.2,1,1.1,1.4,1.2,2.2c0.1,0.5,0.2,1,0.3,1.6L293,129L294.8,130.1z"/>
	<path class="st1" d="M296.2,131.3c-1.5-1.4-3.3-2.3-4.4-2.8c-1.7-0.8-1.2,0.3-4,1c-0.4,0.1-0.8,0.4-0.5,1.1c0.3,0.7,3,0.2,3.4-0.2
		c0,0,1.1,1.4,2.2,1.3c0,0-0.2,0.9,0.1,1.3c0,0-1.6,0.8-2.3,1.5l-1.9-1.3c-0.1-1.9-0.5-2.5-1.4-2.4s-0.8,0.9-0.8,1.6
		c0,1.2-0.3,1.4,0,1.9c1.2,1.9,2.6,3,5.3,3c1,0,1.7,0,2.3-0.3C295.3,136.6,297.9,132.8,296.2,131.3z"/>
	<path class="st2" d="M296.5,131.6c0.6,1.8-1.5,4.7-2.4,5.1c-0.6,0.3-1.3,0.3-2.3,0.3c-2.7,0-4.1-1.1-5.3-3c0,0.1,0.1,0.2,0.1,0.3
		c1.2,1.9,2.6,3,5.3,3c1,0,1.7,0,2.3-0.3C295.2,136.6,297.5,133.3,296.5,131.6z"/>
	<path class="st2" d="M288.5,133.3c0,0,1.7,1.1,2.2,1.2l-1.8-1.2c0.1-2-0.5-2.6-1.4-2.4c-0.1,0-0.1,0-0.2,0
		C288.2,130.8,288.6,131.4,288.5,133.3z"/>
	<path class="st2" d="M290.7,130.3c0,0,1.1,1.4,2.2,1.3v-0.3c-1.1,0-2.2-1.3-2.2-1.3c-0.4,0.4-3.1,0.9-3.4,0.2
		c-0.1-0.1-0.1-0.2-0.1-0.3c0,0.1,0,0.3,0.1,0.6C287.6,131.3,290.3,130.7,290.7,130.3z"/>
</g>
<g>
	<path class="st1" d="M84.1,63.1l-3.6,2.6c0,0-1.8-5.1-3.2-8.2c-0.6-1.3-2.3-1.8-3.1-3.6c-1.4-3.2,0.2-5.9,1.9-3.9
		c1.9,2.3,4.8,4,5.3,5.3C82.4,57.4,84.1,63.1,84.1,63.1z"/>
	<path class="st1" d="M87,65.2c0.3,1.7,0,4.4-1.5,7.6c0,0-3.1-3.7-3.5-5.4c0,0-0.9-6.5-1.8-10.7c-0.4-1.7-2.3-2.7-2.9-5.1
		c-0.9-4.2,1.8-7,3.3-4.3c1.8,3.2,4.7,6,5.1,7.7C86.4,57.9,86.6,62.6,87,65.2z"/>
	<path class="st2" d="M82.4,61.9c0,0-0.3-2.5-1.2-6.6c-0.4-1.7-2.3-2.7-2.9-5.1c-0.3-1.4-0.2-2.7,0.1-3.7c-0.9,0.7-1.7,2.7-1.2,5.1
		s2.5,3.4,2.9,5.1c0.3,1.2,0.5,2.4,0.7,3.7l-2.7-1C78.1,59.3,82.4,61.9,82.4,61.9z"/>
	<path class="st1" d="M85.7,64.5c-3.6-3.3-7.7-5.3-10.3-6.6c-3.9-1.9-2.9,0.7-9.5,2.5c-0.9,0.2-1.9,0.9-1.1,2.5c0.8,1.6,7,0.4,8-0.6
		c0,0,2.6,3.2,5.2,3.1c0,0-0.5,2.1,0.2,3.2c0,0-3.7,1.9-5.3,3.6l-4.4-2.9c-0.3-4.6-1.2-5.9-3.4-5.7c-2.1,0.2-1.9,2.2-1.8,3.8
		c0.1,2.9-0.7,3.4,0,4.5C66,76.3,69.4,79,75.8,79c2.4,0,3.9-0.1,5.3-0.8C83.6,77.1,89.7,68.2,85.7,64.5z"/>
	<path class="st2" d="M86.4,65.4c1.4,4.2-3.5,11-5.6,12c-1.5,0.7-3,0.8-5.3,0.8c-6.3,0-9.7-2.7-12.4-7c0.1,0.2,0.2,0.5,0.3,0.7
		c2.7,4.4,6.1,7.1,12.5,7.1c2.4,0,3.9-0.1,5.3-0.8C83.4,77.2,88.8,69.4,86.4,65.4z"/>
	<path class="st2" d="M67.8,69.4c0,0,4.1,2.6,5.1,2.8l-4.3-2.9c0.2-4.6-1.2-6.1-3.4-5.7c-0.2,0-0.3,0.1-0.5,0.1
		C66.9,63.5,67.9,64.9,67.8,69.4z"/>
	<path class="st2" d="M72.8,62.4c0,0,2.6,3.2,5.2,3.1v-0.6c-2.6,0.1-5.2-3.1-5.2-3.1c-1,1-7.2,2.2-8,0.6c-0.1-0.2-0.2-0.5-0.3-0.8
		c-0.1,0.4,0,0.8,0.3,1.4C65.6,64.5,71.8,63.3,72.8,62.4z"/>
</g>
<g>
	<path class="st1" d="M29,142.3l-3.6,2.6c0,0-1.8-5.1-3.2-8.2c-0.6-1.3-2.3-1.8-3.1-3.6c-1.4-3.2,0.2-5.9,1.9-3.9
		c1.9,2.3,4.8,4,5.3,5.3C27.3,136.6,29,142.3,29,142.3z"/>
	<path class="st1" d="M31.9,144.4c0.3,1.7,0,4.4-1.5,7.6c0,0-3.1-3.7-3.5-5.4c0,0-0.9-6.5-1.8-10.7c-0.4-1.7-2.3-2.7-2.9-5.1
		c-0.9-4.2,1.8-7,3.3-4.3c1.8,3.2,4.7,6,5.1,7.7C31.3,137.1,31.5,141.9,31.9,144.4z"/>
	<path class="st2" d="M27.2,141.1c0,0-0.3-2.5-1.2-6.6c-0.4-1.7-2.3-2.7-2.9-5.1c-0.3-1.4-0.2-2.7,0.1-3.7c-0.9,0.7-1.7,2.7-1.2,5.1
		c0.5,2.4,2.5,3.4,2.9,5.1c0.3,1.2,0.5,2.4,0.7,3.7l-2.7-1C23,138.6,27.2,141.1,27.2,141.1z"/>
	<path class="st1" d="M30.6,143.8c-3.6-3.3-7.7-5.3-10.3-6.6c-3.9-1.9-2.9,0.7-9.5,2.5c-0.9,0.2-1.9,0.9-1.1,2.5
		c0.8,1.6,7,0.4,8-0.6c0,0,2.6,3.2,5.2,3.1c0,0-0.5,2.1,0.2,3.2c0,0-3.7,1.9-5.3,3.6l-4.4-2.9c-0.3-4.6-1.2-5.9-3.4-5.7
		c-2.1,0.2-1.9,2.2-1.8,3.8c0.1,2.9-0.7,3.4,0,4.5c2.7,4.4,6.1,7.1,12.5,7.1c2.4,0,3.9-0.1,5.3-0.8
		C28.5,156.3,34.6,147.4,30.6,143.8z"/>
	<path class="st2" d="M31.3,144.6c1.4,4.2-3.5,11-5.6,12c-1.5,0.7-3,0.8-5.3,0.8c-6.3,0-9.7-2.7-12.4-7c0.1,0.2,0.2,0.5,0.3,0.7
		c2.7,4.4,6.1,7.1,12.5,7.1c2.4,0,3.9-0.1,5.3-0.8C28.3,156.4,33.7,148.6,31.3,144.6z"/>
	<path class="st2" d="M12.6,148.7c0,0,4.1,2.6,5.1,2.8l-4.3-2.9c0.2-4.6-1.2-6.1-3.4-5.7c-0.2,0-0.3,0.1-0.5,0.1
		C11.7,142.7,12.8,144.2,12.6,148.7z"/>
	<path class="st2" d="M17.7,141.6c0,0,2.6,3.2,5.2,3.1v-0.6c-2.6,0.1-5.2-3.1-5.2-3.1c-1,1-7.2,2.2-8,0.6c-0.1-0.2-0.2-0.5-0.3-0.8
		c-0.1,0.4,0,0.8,0.3,1.4C10.5,143.8,16.7,142.5,17.7,141.6z"/>
</g>
<g>
	<path class="st1" d="M279.2,145.1l-3.6,2.6c0,0-1.8-5.1-3.2-8.2c-0.6-1.3-2.3-1.8-3.1-3.6c-1.4-3.2,0.2-5.9,1.9-3.9
		c1.9,2.3,4.8,4,5.3,5.3C277.5,139.4,279.2,145.1,279.2,145.1z"/>
	<path class="st1" d="M282.1,147.2c0.3,1.7,0,4.4-1.5,7.6c0,0-3.1-3.7-3.5-5.4c0,0-0.9-6.5-1.8-10.7c-0.4-1.7-2.3-2.7-2.9-5.1
		c-0.9-4.2,1.8-7,3.3-4.3c1.8,3.2,4.7,6,5.1,7.7C281.5,139.9,281.7,144.6,282.1,147.2z"/>
	<path class="st2" d="M277.5,143.9c0,0-0.3-2.5-1.2-6.6c-0.4-1.7-2.3-2.7-2.9-5.1c-0.3-1.4-0.2-2.7,0.1-3.7
		c-0.9,0.7-1.7,2.7-1.2,5.1c0.5,2.4,2.5,3.4,2.9,5.1c0.3,1.2,0.5,2.4,0.7,3.7l-2.7-1C273.2,141.3,277.5,143.9,277.5,143.9z"/>
	<path class="st1" d="M280.8,146.5c-3.6-3.3-7.7-5.3-10.3-6.6c-3.9-1.9-2.9,0.7-9.5,2.5c-0.9,0.2-1.9,0.9-1.1,2.5s7,0.4,8-0.6
		c0,0,2.6,3.2,5.2,3.1c0,0-0.5,2.1,0.2,3.2c0,0-3.7,1.9-5.3,3.6l-4.4-2.9c-0.3-4.6-1.2-5.9-3.4-5.7c-2.1,0.2-1.9,2.2-1.8,3.8
		c0.1,2.9-0.7,3.4,0,4.5c2.7,4.4,6.1,7.1,12.5,7.1c2.4,0,3.9-0.1,5.3-0.8C278.7,159.1,284.8,150.2,280.8,146.5z"/>
	<path class="st2" d="M281.5,147.4c1.4,4.2-3.5,11-5.6,12c-1.5,0.7-3,0.8-5.3,0.8c-6.3,0-9.7-2.7-12.4-7c0.1,0.2,0.2,0.5,0.3,0.7
		c2.7,4.4,6.1,7.1,12.5,7.1c2.4,0,3.9-0.1,5.3-0.8C278.5,159.2,283.9,151.4,281.5,147.4z"/>
	<path class="st2" d="M262.9,151.4c0,0,4.1,2.6,5.1,2.8l-4.3-2.9c0.2-4.6-1.2-6.1-3.4-5.7c-0.2,0-0.3,0.1-0.5,0.1
		C262,145.5,263,146.9,262.9,151.4z"/>
	<path class="st2" d="M267.9,144.4c0,0,2.6,3.2,5.2,3.1v-0.6c-2.6,0.1-5.2-3.1-5.2-3.1c-1,1-7.2,2.2-8,0.6c-0.1-0.2-0.2-0.5-0.3-0.8
		c-0.1,0.4,0,0.8,0.3,1.4C260.7,146.5,266.9,145.3,267.9,144.4z"/>
</g>
<g>
	<path class="st1" d="M200,64.6l-0.9,0.7c0,0-0.5-1.3-0.8-2.1c-0.1-0.3-0.6-0.5-0.8-0.9c-0.4-0.8,0.1-1.5,0.5-1
		c0.5,0.6,1.2,1,1.4,1.4C199.6,63.1,200,64.6,200,64.6z"/>
	<path class="st1" d="M200.8,65.1c0.1,0.4,0,1.2-0.4,2c0,0-0.8-1-0.9-1.4c0,0-0.2-1.7-0.5-2.8c-0.1-0.4-0.6-0.7-0.7-1.3
		c-0.2-1.1,0.5-1.8,0.9-1.1c0.5,0.8,1.2,1.5,1.3,2C200.6,63.2,200.7,64.5,200.8,65.1z"/>
	<path class="st2" d="M199.6,64.3c0,0-0.1-0.6-0.3-1.7c-0.1-0.4-0.6-0.7-0.7-1.3c-0.1-0.4-0.1-0.7,0-1c-0.2,0.2-0.4,0.7-0.3,1.3
		c0.1,0.6,0.7,0.9,0.7,1.3c0.1,0.3,0.1,0.6,0.2,0.9l-0.7-0.3C198.5,63.6,199.6,64.3,199.6,64.3z"/>
	<path class="st1" d="M200.4,64.9c-0.9-0.9-2-1.4-2.7-1.7c-1-0.5-0.7,0.2-2.5,0.6c-0.2,0.1-0.5,0.2-0.3,0.7c0.2,0.4,1.8,0.1,2.1-0.1
		c0,0,0.7,0.8,1.4,0.8c0,0-0.1,0.6,0,0.8c0,0-1,0.5-1.4,0.9l-1.1-0.8c-0.1-1.2-0.3-1.5-0.9-1.5c-0.5,0.1-0.5,0.6-0.5,1
		c0,0.8-0.2,0.9,0,1.2c0.7,1.1,1.6,1.9,3.2,1.9c0.6,0,1,0,1.4-0.2C199.9,68.2,201.5,65.9,200.4,64.9z"/>
	<path class="st2" d="M200.6,65.2c0.4,1.1-0.9,2.9-1.5,3.1c-0.4,0.2-0.8,0.2-1.4,0.2c-1.6,0-2.5-0.7-3.2-1.8c0,0.1,0,0.1,0.1,0.2
		c0.7,1.1,1.6,1.9,3.2,1.9c0.6,0,1,0,1.4-0.2C199.8,68.2,201.2,66.2,200.6,65.2z"/>
	<path class="st2" d="M195.8,66.2c0,0,1.1,0.7,1.3,0.7l-1.1-0.8c0-1.2-0.3-1.6-0.9-1.5H195C195.5,64.7,195.8,65.1,195.8,66.2z"/>
	<path class="st2" d="M197.1,64.4c0,0,0.7,0.8,1.4,0.8V65c-0.7,0-1.4-0.8-1.4-0.8c-0.3,0.2-1.9,0.6-2.1,0.1c0-0.1-0.1-0.1-0.1-0.2
		c0,0.1,0,0.2,0.1,0.4C195.2,64.9,196.8,64.6,197.1,64.4z"/>
</g>
<g>
	<path class="st1" d="M222.6,75.7l-0.9,0.7c0,0-0.5-1.3-0.8-2.1c-0.1-0.3-0.6-0.5-0.8-0.9c-0.4-0.8,0.1-1.5,0.5-1
		c0.5,0.6,1.2,1,1.4,1.4C222.1,74.2,222.6,75.7,222.6,75.7z"/>
	<path class="st1" d="M223.3,76.3c0.1,0.4,0,1.2-0.4,2c0,0-0.8-1-0.9-1.4c0,0-0.2-1.7-0.5-2.8c-0.1-0.4-0.6-0.7-0.7-1.3
		c-0.2-1.1,0.5-1.8,0.9-1.1c0.5,0.8,1.2,1.5,1.3,2C223.2,74.4,223.2,75.6,223.3,76.3z"/>
	<path class="st2" d="M222.1,75.4c0,0-0.1-0.6-0.3-1.7c-0.1-0.4-0.6-0.7-0.7-1.3c-0.1-0.4-0.1-0.7,0-1c-0.2,0.2-0.4,0.7-0.3,1.3
		c0.1,0.6,0.7,0.9,0.7,1.3c0.1,0.3,0.1,0.6,0.2,0.9l-0.7-0.3C221,74.8,222.1,75.4,222.1,75.4z"/>
	<path class="st1" d="M223,76.1c-0.9-0.9-2-1.4-2.7-1.7c-1-0.5-0.7,0.2-2.5,0.6c-0.2,0.1-0.5,0.2-0.3,0.7c0.2,0.4,1.8,0.1,2.1-0.1
		c0,0,0.7,0.8,1.4,0.8c0,0-0.1,0.6,0,0.8c0,0-1,0.5-1.4,0.9l-1.1-0.8c-0.1-1.2-0.3-1.5-0.9-1.5c-0.5,0.1-0.5,0.6-0.5,1
		c0,0.8-0.2,0.9,0,1.2c0.7,1.1,1.6,1.9,3.2,1.9c0.6,0,1,0,1.4-0.2C222.4,79.4,224,77.1,223,76.1z"/>
	<path class="st2" d="M223.2,76.3c0.4,1.1-0.9,2.9-1.5,3.1c-0.4,0.2-0.8,0.2-1.4,0.2c-1.6,0-2.5-0.7-3.2-1.8c0,0.1,0,0.1,0.1,0.2
		c0.7,1.1,1.6,1.9,3.2,1.9c0.6,0,1,0,1.4-0.2C222.4,79.4,223.8,77.4,223.2,76.3z"/>
	<path class="st2" d="M218.3,77.4c0,0,1.1,0.7,1.3,0.7l-1.1-0.8c0-1.2-0.3-1.6-0.9-1.5h-0.1C218.1,75.8,218.4,76.2,218.3,77.4z"/>
	<path class="st2" d="M219.6,75.5c0,0,0.7,0.8,1.4,0.8v-0.2c-0.7,0-1.4-0.8-1.4-0.8c-0.3,0.2-1.9,0.6-2.1,0.1c0-0.1-0.1-0.1-0.1-0.2
		c0,0.1,0,0.2,0.1,0.4C217.8,76.1,219.4,75.8,219.6,75.5z"/>
</g>
<g>
	<path class="st1" d="M222.6,130.1l-0.9,0.7c0,0-0.5-1.3-0.8-2.1c-0.1-0.3-0.6-0.5-0.8-0.9c-0.4-0.8,0.1-1.5,0.5-1
		c0.5,0.6,1.2,1,1.4,1.4C222.1,128.6,222.6,130.1,222.6,130.1z"/>
	<path class="st1" d="M223.3,130.6c0.1,0.4,0,1.2-0.4,2c0,0-0.8-1-0.9-1.4c0,0-0.2-1.7-0.5-2.8c-0.1-0.4-0.6-0.7-0.7-1.3
		c-0.2-1.1,0.5-1.8,0.9-1.1c0.5,0.8,1.2,1.5,1.3,2C223.2,128.7,223.2,129.9,223.3,130.6z"/>
	<path class="st2" d="M222.1,129.7c0,0-0.1-0.6-0.3-1.7c-0.1-0.4-0.6-0.7-0.7-1.3c-0.1-0.4-0.1-0.7,0-1c-0.2,0.2-0.4,0.7-0.3,1.3
		c0.1,0.6,0.7,0.9,0.7,1.3c0.1,0.3,0.1,0.6,0.2,0.9l-0.7-0.3C221,129.1,222.1,129.7,222.1,129.7z"/>
	<path class="st1" d="M223,130.4c-0.9-0.9-2-1.4-2.7-1.7c-1-0.5-0.7,0.2-2.5,0.6c-0.2,0.1-0.5,0.2-0.3,0.7c0.2,0.4,1.8,0.1,2.1-0.1
		c0,0,0.7,0.8,1.4,0.8c0,0-0.1,0.6,0,0.8c0,0-1,0.5-1.4,0.9l-1.1-0.8c-0.1-1.2-0.3-1.5-0.9-1.5c-0.5,0.1-0.5,0.6-0.5,1
		c0,0.8-0.2,0.9,0,1.2c0.7,1.1,1.6,1.9,3.2,1.9c0.6,0,1,0,1.4-0.2C222.4,133.7,224,131.4,223,130.4z"/>
	<path class="st2" d="M223.2,130.6c0.4,1.1-0.9,2.9-1.5,3.1c-0.4,0.2-0.8,0.2-1.4,0.2c-1.6,0-2.5-0.7-3.2-1.8c0,0.1,0,0.1,0.1,0.2
		c0.7,1.1,1.6,1.9,3.2,1.9c0.6,0,1,0,1.4-0.2C222.4,133.7,223.8,131.7,223.2,130.6z"/>
	<path class="st2" d="M218.3,131.7c0,0,1.1,0.7,1.3,0.7l-1.1-0.8c0-1.2-0.3-1.6-0.9-1.5h-0.1C218.1,130.2,218.4,130.5,218.3,131.7z"
		/>
	<path class="st2" d="M219.6,129.9c0,0,0.7,0.8,1.4,0.8v-0.2c-0.7,0-1.4-0.8-1.4-0.8c-0.3,0.2-1.9,0.6-2.1,0.1
		c0-0.1-0.1-0.1-0.1-0.2c0,0.1,0,0.2,0.1,0.4C217.8,130.4,219.4,130.1,219.6,129.9z"/>
</g>
<g>
	<path class="st1" d="M143.1,116.4l-0.9,0.7c0,0-0.5-1.3-0.8-2.1c-0.1-0.3-0.6-0.5-0.8-0.9c-0.4-0.8,0.1-1.5,0.5-1
		c0.5,0.6,1.2,1,1.4,1.4C142.6,114.9,143.1,116.4,143.1,116.4z"/>
	<path class="st1" d="M143.8,116.9c0.1,0.4,0,1.2-0.4,2c0,0-0.8-1-0.9-1.4c0,0-0.2-1.7-0.5-2.8c-0.1-0.4-0.6-0.7-0.7-1.3
		c-0.2-1.1,0.5-1.8,0.9-1.1c0.5,0.8,1.2,1.5,1.3,2C143.6,115,143.7,116.3,143.8,116.9z"/>
	<path class="st2" d="M142.6,116.1c0,0-0.1-0.6-0.3-1.7c-0.1-0.4-0.6-0.7-0.7-1.3c-0.1-0.4-0.1-0.7,0-1c-0.2,0.2-0.4,0.7-0.3,1.3
		c0.1,0.6,0.7,0.9,0.7,1.3c0.1,0.3,0.1,0.6,0.2,0.9l-0.7-0.2L142.6,116.1z"/>
	<path class="st1" d="M143.5,116.8c-0.9-0.9-2-1.4-2.7-1.7c-1-0.5-0.7,0.2-2.5,0.6c-0.2,0.1-0.5,0.2-0.3,0.7
		c0.2,0.4,1.8,0.1,2.1-0.1c0,0,0.7,0.8,1.4,0.8c0,0-0.1,0.6,0,0.8c0,0-1,0.5-1.4,0.9L139,118c-0.1-1.2-0.3-1.5-0.9-1.5
		c-0.5,0.1-0.5,0.6-0.5,1c0,0.8-0.2,0.9,0,1.2c0.7,1.1,1.6,1.9,3.2,1.9c0.6,0,1,0,1.4-0.2C142.9,120,144.5,117.7,143.5,116.8z"/>
	<path class="st2" d="M143.6,117c0.4,1.1-0.9,2.9-1.5,3.1c-0.4,0.2-0.8,0.2-1.4,0.2c-1.6,0-2.5-0.7-3.2-1.8c0,0.1,0,0.1,0.1,0.2
		c0.7,1.1,1.6,1.9,3.2,1.9c0.6,0,1,0,1.4-0.2C142.9,120,144.3,118,143.6,117z"/>
	<path class="st2" d="M138.8,118c0,0,1.1,0.7,1.3,0.7l-1.1-0.8c0-1.2-0.3-1.6-0.9-1.5H138C138.6,116.5,138.9,116.9,138.8,118z"/>
	<path class="st2" d="M140.1,116.2c0,0,0.7,0.8,1.4,0.8v-0.2c-0.7,0-1.4-0.8-1.4-0.8c-0.3,0.2-1.9,0.6-2.1,0.1
		c0-0.1-0.1-0.1-0.1-0.2c0,0.1,0,0.2,0.1,0.4C138.2,116.7,139.9,116.4,140.1,116.2z"/>
</g>
<g>
	<path class="st1" d="M100.2,55.8l-0.9,0.7c0,0-0.5-1.3-0.8-2.1c-0.1-0.3-0.6-0.5-0.8-0.9c-0.4-0.8,0.1-1.5,0.5-1
		c0.5,0.6,1.2,1,1.4,1.4C99.7,54.4,100.2,55.8,100.2,55.8z"/>
	<path class="st1" d="M100.9,56.4c0.1,0.4,0,1.2-0.4,2c0,0-0.8-1-0.9-1.4c0,0-0.2-1.7-0.5-2.8c-0.1-0.4-0.6-0.7-0.7-1.3
		c-0.2-1.1,0.5-1.8,0.9-1.1c0.5,0.8,1.2,1.5,1.3,2C100.8,54.5,100.8,55.7,100.9,56.4z"/>
	<path class="st2" d="M99.7,55.5c0,0-0.1-0.6-0.3-1.7c-0.1-0.4-0.6-0.7-0.7-1.3c-0.1-0.4-0.1-0.7,0-1c-0.2,0.2-0.4,0.7-0.3,1.3
		c0.1,0.6,0.7,0.9,0.7,1.3c0.1,0.3,0.1,0.6,0.2,0.9l-0.7-0.3C98.6,54.9,99.7,55.5,99.7,55.5z"/>
	<path class="st1" d="M100.6,56.2c-0.9-0.9-2-1.4-2.7-1.7c-1-0.5-0.7,0.2-2.5,0.6c-0.2,0.1-0.5,0.2-0.3,0.7c0.2,0.4,1.8,0.1,2.1-0.1
		c0,0,0.7,0.8,1.4,0.8c0,0-0.1,0.6,0,0.8c0,0-1,0.5-1.4,0.9l-1.1-0.8c-0.1-1.2-0.3-1.5-0.9-1.5c-0.5,0.1-0.5,0.6-0.5,1
		c0,0.8-0.2,0.9,0,1.2c0.7,1.1,1.6,1.9,3.2,1.9c0.6,0,1,0,1.4-0.2C100.1,59.5,101.6,57.2,100.6,56.2z"/>
	<path class="st2" d="M100.8,56.4c0.4,1.1-0.9,2.9-1.5,3.1c-0.4,0.2-0.8,0.2-1.4,0.2c-1.6,0-2.5-0.7-3.2-1.8c0,0.1,0,0.1,0.1,0.2
		c0.7,1.1,1.6,1.9,3.2,1.9c0.6,0,1,0,1.4-0.2C100,59.5,101.4,57.5,100.8,56.4z"/>
	<path class="st2" d="M95.9,57.5c0,0,1.1,0.7,1.3,0.7l-1.1-0.8c0-1.2-0.3-1.6-0.9-1.5h-0.1C95.7,55.9,96,56.3,95.9,57.5z"/>
	<path class="st2" d="M97.3,55.7c0,0,0.7,0.8,1.4,0.8v-0.2c-0.7,0-1.4-0.8-1.4-0.8c-0.3,0.2-1.9,0.6-2.1,0.1c0-0.1-0.1-0.1-0.1-0.2
		c0,0.1,0,0.2,0.1,0.4C95.4,56.2,97,55.9,97.3,55.7z"/>
</g>
<g>
	<path class="st1" d="M342.9,128.7l-0.9,0.7c0,0-0.5-1.3-0.8-2.1c-0.1-0.3-0.6-0.5-0.8-0.9c-0.4-0.8,0.1-1.5,0.5-1
		c0.5,0.6,1.2,1,1.4,1.4C342.5,127.2,342.9,128.7,342.9,128.7z"/>
	<path class="st1" d="M343.7,129.3c0.1,0.4,0,1.2-0.4,2c0,0-0.8-1-0.9-1.4c0,0-0.2-1.7-0.5-2.8c-0.1-0.4-0.6-0.7-0.7-1.3
		c-0.2-1.1,0.5-1.8,0.9-1.1c0.5,0.8,1.2,1.5,1.3,2C343.5,127.4,343.6,128.6,343.7,129.3z"/>
	<path class="st2" d="M342.5,128.4c0,0-0.1-0.6-0.3-1.7c-0.1-0.4-0.6-0.7-0.7-1.3c-0.1-0.4-0.1-0.7,0-1c-0.2,0.2-0.4,0.7-0.3,1.3
		s0.7,0.9,0.7,1.3c0.1,0.3,0.1,0.6,0.2,0.9l-0.7-0.3C341.4,127.7,342.5,128.4,342.5,128.4z"/>
	<path class="st1" d="M343.3,129.1c-0.9-0.9-2-1.4-2.7-1.7c-1-0.5-0.7,0.2-2.5,0.6c-0.2,0.1-0.5,0.2-0.3,0.7
		c0.2,0.4,1.8,0.1,2.1-0.1c0,0,0.7,0.8,1.4,0.8c0,0-0.1,0.6,0,0.8c0,0-1,0.5-1.4,0.9l-1.1-0.8c-0.1-1.2-0.3-1.5-0.9-1.5
		c-0.5,0.1-0.5,0.6-0.5,1c0,0.8-0.2,0.9,0,1.2c0.7,1.1,1.6,1.9,3.2,1.9c0.6,0,1,0,1.4-0.2C342.8,132.3,344.4,130,343.3,129.1z"/>
	<path class="st2" d="M343.5,129.3c0.4,1.1-0.9,2.9-1.5,3.1c-0.4,0.2-0.8,0.2-1.4,0.2c-1.6,0-2.5-0.7-3.2-1.8c0,0.1,0,0.1,0.1,0.2
		c0.7,1.1,1.6,1.9,3.2,1.9c0.6,0,1,0,1.4-0.2C342.7,132.4,344.1,130.4,343.5,129.3z"/>
	<path class="st2" d="M338.7,130.4c0,0,1.1,0.7,1.3,0.7l-1.1-0.8c0-1.2-0.3-1.6-0.9-1.5h-0.1C338.4,128.8,338.7,129.2,338.7,130.4z"
		/>
	<path class="st2" d="M340,128.5c0,0,0.7,0.8,1.4,0.8v-0.2c-0.7,0-1.4-0.8-1.4-0.8c-0.3,0.2-1.9,0.6-2.1,0.1c0-0.1-0.1-0.1-0.1-0.2
		c0,0.1,0,0.2,0.1,0.4C338.1,129.1,339.7,128.8,340,128.5z"/>
</g>
<g>
	<path class="st1" d="M336.3,157.4l-0.9,0.7c0,0-0.5-1.3-0.8-2.1c-0.1-0.3-0.6-0.5-0.8-0.9c-0.4-0.8,0.1-1.5,0.5-1
		c0.5,0.6,1.2,1,1.4,1.4C335.9,155.9,336.3,157.4,336.3,157.4z"/>
	<path class="st1" d="M337.1,158c0.1,0.4,0,1.2-0.4,2c0,0-0.8-1-0.9-1.4c0,0-0.2-1.7-0.5-2.8c-0.1-0.4-0.6-0.7-0.7-1.3
		c-0.2-1.1,0.5-1.8,0.9-1.1c0.5,0.8,1.2,1.5,1.3,2C336.9,156.1,337,157.3,337.1,158z"/>
	<path class="st2" d="M335.9,157.1c0,0-0.1-0.6-0.3-1.7c-0.1-0.4-0.6-0.7-0.7-1.3c-0.1-0.4-0.1-0.7,0-1c-0.2,0.2-0.4,0.7-0.3,1.3
		s0.7,0.9,0.7,1.3c0.1,0.3,0.1,0.6,0.2,0.9l-0.7-0.3C334.8,156.4,335.9,157.1,335.9,157.1z"/>
	<path class="st1" d="M336.7,157.8c-0.9-0.9-2-1.4-2.7-1.7c-1-0.5-0.7,0.2-2.5,0.6c-0.2,0.1-0.5,0.2-0.3,0.7
		c0.2,0.4,1.8,0.1,2.1-0.1c0,0,0.7,0.8,1.4,0.8c0,0-0.1,0.6,0,0.8c0,0-1,0.5-1.4,0.9l-1.1-0.8c-0.1-1.2-0.3-1.5-0.9-1.5
		c-0.5,0.1-0.5,0.6-0.5,1c0,0.8-0.2,0.9,0,1.2c0.7,1.1,1.6,1.9,3.2,1.9c0.6,0,1,0,1.4-0.2C336.2,161,337.8,158.7,336.7,157.8z"/>
	<path class="st2" d="M336.9,158c0.4,1.1-0.9,2.9-1.5,3.1c-0.4,0.2-0.8,0.2-1.4,0.2c-1.6,0-2.5-0.7-3.2-1.8c0,0.1,0,0.1,0.1,0.2
		c0.7,1.1,1.6,1.9,3.2,1.9c0.6,0,1,0,1.4-0.2C336.1,161.1,337.5,159.1,336.9,158z"/>
	<path class="st2" d="M332.1,159.1c0,0,1.1,0.7,1.3,0.7l-1.1-0.8c0-1.2-0.3-1.6-0.9-1.5h-0.1C331.8,157.5,332.1,157.9,332.1,159.1z"
		/>
	<path class="st2" d="M333.4,157.2c0,0,0.7,0.8,1.4,0.8v-0.2c-0.7,0-1.4-0.8-1.4-0.8c-0.3,0.2-1.9,0.6-2.1,0.1
		c0-0.1-0.1-0.1-0.1-0.2c0,0.1,0,0.2,0.1,0.4C331.5,157.8,333.1,157.5,333.4,157.2z"/>
</g>
<g>
	<path class="st1" d="M392.5,148.8l-0.9,0.7c0,0-0.5-1.3-0.8-2.1c-0.1-0.3-0.6-0.5-0.8-0.9c-0.4-0.8,0.1-1.5,0.5-1
		c0.5,0.6,1.2,1,1.4,1.4C392.1,147.3,392.5,148.8,392.5,148.8z"/>
	<path class="st1" d="M393.3,149.4c0.1,0.4,0,1.2-0.4,2c0,0-0.8-1-0.9-1.4c0,0-0.2-1.7-0.5-2.8c-0.1-0.4-0.6-0.7-0.7-1.3
		c-0.2-1.1,0.5-1.8,0.9-1.1c0.5,0.8,1.2,1.5,1.3,2C393.1,147.5,393.2,148.7,393.3,149.4z"/>
	<path class="st2" d="M392.1,148.5c0,0-0.1-0.6-0.3-1.7c-0.1-0.4-0.6-0.7-0.7-1.3c-0.1-0.4-0.1-0.7,0-1c-0.2,0.2-0.4,0.7-0.3,1.3
		s0.7,0.9,0.7,1.3c0.1,0.3,0.1,0.6,0.2,0.9l-0.7-0.3C391,147.8,392.1,148.5,392.1,148.5z"/>
	<path class="st1" d="M392.9,149.2c-0.9-0.9-2-1.4-2.7-1.7c-1-0.5-0.7,0.2-2.5,0.6c-0.2,0.1-0.5,0.2-0.3,0.7
		c0.2,0.4,1.8,0.1,2.1-0.1c0,0,0.7,0.8,1.4,0.8c0,0-0.1,0.6,0,0.8c0,0-1,0.5-1.4,0.9l-1.1-0.8c-0.1-1.2-0.3-1.5-0.9-1.5
		c-0.5,0.1-0.5,0.6-0.5,1c0,0.8-0.2,0.9,0,1.2c0.7,1.1,1.6,1.9,3.2,1.9c0.6,0,1,0,1.4-0.2C392.4,152.4,394,150.1,392.9,149.2z"/>
	<path class="st2" d="M393.1,149.4c0.4,1.1-0.9,2.9-1.5,3.1c-0.4,0.2-0.8,0.2-1.4,0.2c-1.6,0-2.5-0.7-3.2-1.8c0,0.1,0,0.1,0.1,0.2
		c0.7,1.1,1.6,1.9,3.2,1.9c0.6,0,1,0,1.4-0.2C392.3,152.5,393.7,150.5,393.1,149.4z"/>
	<path class="st2" d="M388.3,150.5c0,0,1.1,0.7,1.3,0.7l-1.1-0.8c0-1.2-0.3-1.6-0.9-1.5h-0.1C388,148.9,388.3,149.3,388.3,150.5z"/>
	<path class="st2" d="M389.6,148.6c0,0,0.7,0.8,1.4,0.8v-0.2c-0.7,0-1.4-0.8-1.4-0.8c-0.3,0.2-1.9,0.6-2.1,0.1
		c0-0.1-0.1-0.1-0.1-0.2c0,0.1,0,0.2,0.1,0.4C387.7,149.2,389.3,148.9,389.6,148.6z"/>
</g>
<g>
	<path class="st1" d="M357.6,55.1l-0.9,0.7c0,0-0.5-1.3-0.8-2.1c-0.1-0.3-0.6-0.5-0.8-0.9c-0.4-0.8,0.1-1.5,0.5-1
		c0.5,0.6,1.2,1,1.4,1.4C357.1,53.6,357.6,55.1,357.6,55.1z"/>
	<path class="st1" d="M358.3,55.6c0.1,0.4,0,1.2-0.4,2c0,0-0.8-1-0.9-1.4c0,0-0.2-1.7-0.5-2.8c-0.1-0.4-0.6-0.7-0.7-1.3
		c-0.2-1.1,0.5-1.8,0.9-1.1c0.5,0.8,1.2,1.5,1.3,2C358.2,53.7,358.2,54.9,358.3,55.6z"/>
	<path class="st2" d="M357.1,54.7c0,0-0.1-0.6-0.3-1.7c-0.1-0.4-0.6-0.7-0.7-1.3c-0.1-0.4-0.1-0.7,0-1c-0.2,0.2-0.4,0.7-0.3,1.3
		c0.1,0.6,0.7,0.9,0.7,1.3c0.1,0.3,0.1,0.6,0.2,0.9l-0.7-0.3C356,54.1,357.1,54.7,357.1,54.7z"/>
	<path class="st1" d="M358,55.4c-0.9-0.9-2-1.4-2.7-1.7c-1-0.5-0.7,0.2-2.5,0.6c-0.2,0.1-0.5,0.2-0.3,0.7c0.2,0.4,1.8,0.1,2.1-0.1
		c0,0,0.7,0.8,1.4,0.8c0,0-0.1,0.6,0,0.8c0,0-1,0.5-1.4,0.9l-1.1-0.8c-0.1-1.2-0.3-1.5-0.9-1.5c-0.5,0.1-0.5,0.6-0.5,1
		c0,0.8-0.2,0.9,0,1.2c0.7,1.1,1.6,1.9,3.2,1.9c0.6,0,1,0,1.4-0.2C357.4,58.7,359,56.4,358,55.4z"/>
	<path class="st2" d="M358.2,55.6c0.4,1.1-0.9,2.9-1.5,3.1c-0.4,0.2-0.8,0.2-1.4,0.2c-1.6,0-2.5-0.7-3.2-1.8c0,0.1,0,0.1,0.1,0.2
		c0.7,1.1,1.6,1.9,3.2,1.9c0.6,0,1,0,1.4-0.2C357.4,58.7,358.8,56.7,358.2,55.6z"/>
	<path class="st2" d="M353.3,56.7c0,0,1.1,0.7,1.3,0.7l-1.1-0.8c0-1.2-0.3-1.6-0.9-1.5h-0.1C353.1,55.2,353.4,55.5,353.3,56.7z"/>
	<path class="st2" d="M354.6,54.9c0,0,0.7,0.8,1.4,0.8v-0.2c-0.7,0-1.4-0.8-1.4-0.8c-0.3,0.2-1.9,0.6-2.1,0.1c0-0.1-0.1-0.1-0.1-0.2
		c0,0.1,0,0.2,0.1,0.4C352.8,55.4,354.4,55.1,354.6,54.9z"/>
</g>
<g>
	<path class="st1" d="M12.6,16.7l-0.9,0.7c0,0-0.5-1.3-0.8-2.1c-0.1-0.3-0.6-0.5-0.8-0.9c-0.4-0.8,0.1-1.5,0.5-1
		c0.5,0.6,1.2,1,1.4,1.4C12.1,15.2,12.6,16.7,12.6,16.7z"/>
	<path class="st1" d="M13.3,17.3c0.1,0.4,0,1.2-0.4,2c0,0-0.8-1-0.9-1.4c0,0-0.2-1.7-0.5-2.8c-0.1-0.4-0.6-0.7-0.7-1.3
		c-0.2-1.1,0.5-1.8,0.9-1.1c0.5,0.8,1.2,1.5,1.3,2C13.2,15.4,13.2,16.6,13.3,17.3z"/>
	<path class="st2" d="M12.1,16.4c0,0-0.1-0.6-0.3-1.7c-0.1-0.4-0.6-0.7-0.7-1.3c-0.1-0.4-0.1-0.7,0-1c-0.2,0.2-0.4,0.7-0.3,1.3
		c0.1,0.6,0.7,0.9,0.7,1.3c0.1,0.3,0.1,0.6,0.2,0.9L11,15.7L12.1,16.4z"/>
	<path class="st1" d="M13,17.1c-0.9-0.9-2-1.4-2.7-1.7c-1-0.5-0.7,0.2-2.5,0.6c-0.2,0.1-0.5,0.2-0.3,0.7c0.2,0.4,1.8,0.1,2.1-0.1
		c0,0,0.7,0.8,1.4,0.8c0,0-0.1,0.6,0,0.8c0,0-1,0.5-1.4,0.9l-1.1-0.8c-0.1-1.2-0.3-1.5-0.9-1.5c-0.5,0.1-0.5,0.6-0.5,1
		c0,0.8-0.2,0.9,0,1.2c0.7,1.1,1.6,1.9,3.2,1.9c0.6,0,1,0,1.4-0.2C12.4,20.3,14,18,13,17.1z"/>
	<path class="st2" d="M13.2,17.3c0.4,1.1-0.9,2.9-1.5,3.1c-0.4,0.2-0.8,0.2-1.4,0.2c-1.6,0-2.5-0.7-3.2-1.8c0,0.1,0,0.1,0.1,0.2
		c0.7,1.1,1.6,1.9,3.2,1.9c0.6,0,1,0,1.4-0.2C12.4,20.4,13.8,18.4,13.2,17.3z"/>
	<path class="st2" d="M8.3,18.4c0,0,1.1,0.7,1.3,0.7l-1.1-0.8c0-1.2-0.3-1.6-0.9-1.5H7.5C8.1,16.8,8.4,17.2,8.3,18.4z"/>
	<path class="st2" d="M9.6,16.5c0,0,0.7,0.8,1.4,0.8v-0.2c-0.7,0-1.4-0.8-1.4-0.8c-0.3,0.2-1.9,0.6-2.1,0.1c0-0.1-0.1-0.1-0.1-0.2
		c0,0.1,0,0.2,0.1,0.4C7.8,17.1,9.4,16.8,9.6,16.5z"/>
</g>
<g>
	<path class="st1" d="M11.2,59.4l-0.9,0.7c0,0-0.5-1.3-0.8-2.1c-0.1-0.3-0.6-0.5-0.8-0.9c-0.4-0.8,0.1-1.5,0.5-1
		c0.5,0.6,1.2,1,1.4,1.4C10.8,57.9,11.2,59.4,11.2,59.4z"/>
	<path class="st1" d="M12,59.9c0.1,0.4,0,1.2-0.4,2c0,0-0.8-1-0.9-1.4c0,0-0.2-1.7-0.5-2.8c-0.1-0.4-0.6-0.7-0.7-1.3
		c-0.2-1.1,0.5-1.8,0.9-1.1c0.5,0.8,1.2,1.5,1.3,2C11.8,58,11.9,59.3,12,59.9z"/>
	<path class="st2" d="M10.8,59.1c0,0-0.1-0.6-0.3-1.7c-0.1-0.4-0.6-0.7-0.7-1.3c-0.1-0.4-0.1-0.7,0-1c-0.2,0.2-0.4,0.7-0.3,1.3
		c0.1,0.6,0.7,0.9,0.7,1.3c0.1,0.3,0.1,0.6,0.2,0.9l-0.7-0.3C9.7,58.4,10.8,59.1,10.8,59.1z"/>
	<path class="st1" d="M11.7,59.8c-0.9-0.9-2-1.4-2.7-1.7c-1-0.5-0.7,0.2-2.5,0.6c-0.2,0.1-0.5,0.2-0.3,0.7c0.2,0.4,1.8,0.1,2.1-0.1
		c0,0,0.7,0.8,1.4,0.8c0,0-0.1,0.6,0,0.8c0,0-1,0.5-1.4,0.9L7.2,61c-0.1-1.2-0.3-1.5-0.9-1.5c-0.5,0.1-0.5,0.6-0.5,1
		c0,0.8-0.2,0.9,0,1.2c0.7,1.1,1.6,1.9,3.2,1.9c0.6,0,1,0,1.4-0.2C11.1,63,12.7,60.7,11.7,59.8z"/>
	<path class="st2" d="M11.8,60c0.4,1.1-0.9,2.9-1.5,3.1c-0.4,0.2-0.8,0.2-1.4,0.2c-1.6,0-2.5-0.7-3.2-1.8c0,0.1,0,0.1,0.1,0.2
		c0.7,1.1,1.6,1.9,3.2,1.9c0.6,0,1,0,1.4-0.2C11.1,63,12.5,61,11.8,60z"/>
	<path class="st2" d="M7,61c0,0,1.1,0.7,1.3,0.7L7.2,61c0-1.2-0.3-1.6-0.9-1.5H6.2C6.8,59.5,7,59.9,7,61z"/>
	<path class="st2" d="M8.3,59.2c0,0,0.7,0.8,1.4,0.8v-0.2C9,59.8,8.3,59,8.3,59c-0.3,0.2-1.9,0.6-2.1,0.1c0-0.1-0.1-0.1-0.1-0.2
		c0,0.1,0,0.2,0.1,0.4C6.4,59.8,8.1,59.4,8.3,59.2z"/>
</g>
<g>
	<path class="st1" d="M354.4,96.7l-0.9,0.7c0,0-0.5-1.3-0.8-2.1c-0.1-0.3-0.6-0.5-0.8-0.9c-0.4-0.8,0.1-1.5,0.5-1
		c0.5,0.6,1.2,1,1.4,1.4C353.9,95.2,354.4,96.7,354.4,96.7z"/>
	<path class="st1" d="M355.1,97.3c0.1,0.4,0,1.2-0.4,2c0,0-0.8-1-0.9-1.4c0,0-0.2-1.7-0.5-2.8c-0.1-0.4-0.6-0.7-0.7-1.3
		c-0.2-1.1,0.5-1.8,0.9-1.1c0.5,0.8,1.2,1.5,1.3,2C355,95.4,355,96.6,355.1,97.3z"/>
	<path class="st2" d="M353.9,96.4c0,0-0.1-0.6-0.3-1.7c-0.1-0.4-0.6-0.7-0.7-1.3c-0.1-0.4-0.1-0.7,0-1c-0.2,0.2-0.4,0.7-0.3,1.3
		s0.7,0.9,0.7,1.3c0.1,0.3,0.1,0.6,0.2,0.9l-0.7-0.3C352.8,95.7,353.9,96.4,353.9,96.4z"/>
	<path class="st1" d="M354.8,97.1c-0.9-0.9-2-1.4-2.7-1.7c-1-0.5-0.7,0.2-2.5,0.6c-0.2,0.1-0.5,0.2-0.3,0.7c0.2,0.4,1.8,0.1,2.1-0.1
		c0,0,0.7,0.8,1.4,0.8c0,0-0.1,0.6,0,0.8c0,0-1,0.5-1.4,0.9l-1.1-0.8c-0.1-1.2-0.3-1.5-0.9-1.5c-0.5,0.1-0.5,0.6-0.5,1
		c0,0.8-0.2,0.9,0,1.2c0.7,1.1,1.6,1.9,3.2,1.9c0.6,0,1,0,1.4-0.2C354.2,100.3,355.8,98,354.8,97.1z"/>
	<path class="st2" d="M355,97.3c0.4,1.1-0.9,2.9-1.5,3.1c-0.4,0.2-0.8,0.2-1.4,0.2c-1.6,0-2.5-0.7-3.2-1.8c0,0.1,0,0.1,0.1,0.2
		c0.7,1.1,1.6,1.9,3.2,1.9c0.6,0,1,0,1.4-0.2C354.2,100.4,355.6,98.4,355,97.3z"/>
	<path class="st2" d="M350.1,98.4c0,0,1.1,0.7,1.3,0.7l-1.1-0.8c0-1.2-0.3-1.6-0.9-1.5h-0.1C349.9,96.8,350.2,97.2,350.1,98.4z"/>
	<path class="st2" d="M351.4,96.5c0,0,0.7,0.8,1.4,0.8v-0.2c-0.7,0-1.4-0.8-1.4-0.8c-0.3,0.2-1.9,0.6-2.1,0.1c0-0.1-0.1-0.1-0.1-0.2
		c0,0.1,0,0.2,0.1,0.4C349.6,97.1,351.2,96.8,351.4,96.5z"/>
</g>
</svg>
