<?xml version="1.0" encoding="utf-8"?>
<!-- Generator: Adobe Illustrator 22.0.1, SVG Export Plug-In . SVG Version: 6.00 Build 0)  -->
<svg version="1.1" id="Camada_1" xmlns="http://www.w3.org/2000/svg" xmlns:xlink="http://www.w3.org/1999/xlink" x="0px" y="0px"
	 viewBox="0 0 33.3 43.6" style="enable-background:new 0 0 33.3 43.6;" xml:space="preserve">
<style type="text/css">
	.st0{fill:#FFDD67;}
	.st1{fill:#EBA352;}
</style>
<g>
	<path class="st0" d="M28.5,22.3l-4.7,3.3c0,0-2.3-6.6-4.1-10.7c-0.7-1.7-3-2.3-4.1-4.7c-1.8-4.1,0.3-7.7,2.5-5.1
		c2.5,3,6.2,5.2,6.9,6.9C26.3,14.9,28.5,22.3,28.5,22.3z"/>
	<path class="st0" d="M32.3,25c0.3,2.2,0,5.8-1.9,9.9c0,0-4.1-4.9-4.5-7.1c0,0-1.2-8.5-2.3-13.9c-0.5-2.2-3-3.5-3.7-6.6
		c-1.2-5.4,2.3-9.2,4.3-5.5c2.3,4.2,6.1,7.7,6.6,10C31.5,15.5,31.8,21.7,32.3,25z"/>
	<path class="st1" d="M26.2,20.8c0,0-0.4-3.2-1.5-8.6c-0.5-2.2-3-3.5-3.7-6.6c-0.4-1.9-0.3-3.5,0.2-4.8C20,1.7,19,4.3,19.7,7.4
		s3.3,4.4,3.7,6.6c0.3,1.6,0.6,3.2,0.9,4.7l-3.6-1.3C20.7,17.4,26.2,20.8,26.2,20.8z"/>
	<path class="st0" d="M30.5,24.2c-4.7-4.3-10-6.9-13.4-8.6c-5-2.5-3.7,0.9-12.3,3.2c-1.1,0.3-2.5,1.1-1.5,3.3
		c1,2.1,9.1,0.5,10.4-0.7c0,0,3.4,4.2,6.8,4.1c0,0-0.6,2.8,0.2,4.1c0,0-4.8,2.5-6.9,4.7l-5.7-3.8c-0.4-5.9-1.5-7.7-4.4-7.4
		C1,23.4,1.3,25.9,1.3,28c0.1,3.8-0.9,4.4,0,5.9c3.5,5.7,8,9.3,16.2,9.3c3.1,0,5.1-0.1,6.9-1C27.8,40.5,35.7,28.9,30.5,24.2z"/>
	<path class="st1" d="M31.5,25.3c1.8,5.4-4.5,14.3-7.3,15.7c-1.9,0.9-3.9,1-6.9,1c-8.2,0-12.6-3.5-16.1-9.1c0.1,0.3,0.2,0.6,0.4,0.9
		c3.5,5.7,8,9.3,16.2,9.3c3.1,0,5.1-0.1,6.9-1C27.6,40.6,34.6,30.5,31.5,25.3z"/>
	<path class="st1" d="M7.2,30.6c0,0,5.3,3.4,6.6,3.6l-5.6-3.8c0.2-6-1.5-7.9-4.4-7.4c-0.2,0-0.4,0.1-0.6,0.1
		C6.1,22.8,7.5,24.7,7.2,30.6z"/>
	<path class="st1" d="M13.8,21.4c0,0,3.4,4.2,6.8,4.1v-0.8c-3.4,0.1-6.8-4.1-6.8-4.1c-1.3,1.2-9.4,2.8-10.4,0.7
		c-0.2-0.3-0.3-0.6-0.3-1c-0.1,0.5,0,1,0.3,1.8C4.4,24.2,12.5,22.6,13.8,21.4z"/>
</g>
</svg>
